<svg id="Layer_2" data-name="Layer 2" xmlns="http://www.w3.org/2000/svg" viewBox="0 0 200 200"><defs><style>.cls-1{fill:#ff0073;}.cls-2{fill:#ff4d8d;}.cls-3{fill:#ff75a4;}.cls-4{fill:#ff92b7;}.cls-5{fill:#ffafce;}.cls-6{fill:#ff0016;}.cls-7{fill:#ff4d31;}.cls-8{fill:#ff704a;}.cls-9{fill:#ff8c68;}.cls-10{fill:#ffa888;}.cls-11{fill:#ffed00;}.cls-12{fill:#fff566;}.cls-13{fill:#fff899;}.cls-14{fill:#fffab2;}.cls-15{fill:#fffccc;}.cls-16{fill:#00a115;}.cls-17{fill:#42b54a;}.cls-18{fill:#77c269;}.cls-19{fill:#006bb6;}.cls-20{fill:#0086c5;}.cls-21{fill:#0097cb;}.cls-22{fill:#fff;}.cls-23{fill:#404040;}.cls-24{fill:gray;}.cls-25{fill:silver;}.cls-26{fill:#e5f8fa;}.cls-27{fill:#daf3fc;}.cls-28{fill:#e0f1fb;}.cls-29{fill:#eae6f3;}.cls-30{fill:#f7ebf5;}.cls-31{fill:#ffe9f0;}.cls-32{fill:#ffebf3;}.cls-33{fill:#ffeae1;}.cls-34{fill:#fff8ef;}.cls-35{fill:#fffffa;}.cls-36{fill:#fcfbee;}.cls-37{fill:#f3f7ea;}.cls-38{fill:#e5f1d7;}.cls-39{fill:#cfe7c2;}.cls-40{fill:#b5daa3;}.cls-41{fill:#96ce85;}.cls-42{fill:#00ae29;}.cls-43{fill:#d9f3f6;}.cls-44{fill:#c3e5e9;}.cls-45{fill:#a5dedf;}.cls-46{fill:#73d4ce;}.cls-47{fill:#53c9c6;}.cls-48{fill:#00bab6;}.cls-49{fill:#00afa7;}.cls-50{fill:#00a59b;}.cls-51{fill:#c9eefa;}.cls-52{fill:#b0e6f8;}.cls-53{fill:#94def3;}.cls-54{fill:#76d7f2;}.cls-55{fill:#46cdef;}.cls-56{fill:#00c2eb;}.cls-57{fill:#00b9e7;}.cls-58{fill:#00b0e5;}.cls-59{fill:#d2eaf9;}.cls-60{fill:#afd4ee;}.cls-61{fill:#8cc1e4;}.cls-62{fill:#57acdb;}.cls-63{fill:#0078bd;}.cls-64{fill:#e0dbed;}.cls-65{fill:#cabfdf;}.cls-66{fill:#b5a8cf;}.cls-67{fill:#a08cbf;}.cls-68{fill:#8e74b1;}.cls-69{fill:#795ca2;}.cls-70{fill:#644597;}.cls-71{fill:#4e2e8d;}.cls-72{fill:#f2e1ef;}.cls-73{fill:#e4c6e0;}.cls-74{fill:#d5afd1;}.cls-75{fill:#c993c3;}.cls-76{fill:#ba7ab1;}.cls-77{fill:#ab62a3;}.cls-78{fill:#9d4595;}.cls-79{fill:#91278a;}.cls-80{fill:#ffdee9;}.cls-81{fill:#ffc4d9;}.cls-82{fill:#fba9c2;}.cls-83{fill:#f38bac;}.cls-84{fill:#eb6c97;}.cls-85{fill:#e34c82;}.cls-86{fill:#db1c71;}.cls-87{fill:#d10265;}.cls-88{fill:#ffe1ed;}.cls-89{fill:#ffc9dd;}.cls-90{fill:#ff197c;}.cls-91{fill:#f8f7db;}.cls-92{fill:#f5f3ca;}.cls-93{fill:#edeba5;}.cls-94{fill:#e3e686;}.cls-95{fill:#d6de62;}.cls-96{fill:#cbd739;}.cls-97{fill:#bcd200;}.cls-98{fill:#b0cb00;}.cls-99{fill:#fffef2;}.cls-100{fill:#fffde5;}.cls-101{fill:#fff133;}.cls-102{fill:#fff6de;}.cls-103{fill:#ffe3bc;}.cls-104{fill:#ffcf9a;}.cls-105{fill:#ffb978;}.cls-106{fill:#ffa459;}.cls-107{fill:#ff8d33;}.cls-108{fill:#ff7701;}.cls-109{fill:#ff5f00;}.cls-110{fill:#ffdbcc;}.cls-111{fill:#ffc2a8;}.cls-112{fill:#ff1b1e;}</style></defs><title>colors</title><rect class="cls-1" width="30" height="30"/><rect class="cls-2" x="42.5" width="30" height="30"/><rect class="cls-3" x="85" width="30" height="30"/><rect class="cls-4" x="127.5" width="30" height="30"/><rect class="cls-5" x="170" width="30" height="30"/><rect class="cls-6" y="42.5" width="30" height="30"/><rect class="cls-7" x="42.5" y="42.5" width="30" height="30"/><rect class="cls-8" x="85" y="42.5" width="30" height="30"/><rect class="cls-9" x="127.5" y="42.5" width="30" height="30"/><rect class="cls-10" x="170" y="42.5" width="30" height="30"/><rect class="cls-11" y="85" width="30" height="30"/><rect class="cls-12" x="42.5" y="85" width="30" height="30"/><rect class="cls-13" x="85" y="85" width="30" height="30"/><rect class="cls-14" x="127.5" y="85" width="30" height="30"/><rect class="cls-15" x="170" y="85" width="30" height="30"/><rect class="cls-16" y="127.5" width="30" height="30"/><rect class="cls-17" x="42.5" y="127.5" width="30" height="30"/><rect class="cls-18" x="85" y="127.5" width="30" height="30"/><rect class="cls-19" y="170" width="30" height="30"/><rect class="cls-20" x="42.5" y="170" width="30" height="30"/><rect class="cls-21" x="85" y="170" width="30" height="30"/><path class="cls-22" d="M132.38113,200.00051a53.009,53.009,0,1,1,67.61953-67.61893v35.23514a53.14766,53.14766,0,0,1-32.383,32.38362Z"/><path d="M149.99913,149.99913v7a7,7,0,0,1-7-7"/><path class="cls-23" d="M142.99913,149.99913a7,7,0,0,1,7-7v7"/><path class="cls-24" d="M149.99913,149.99913v-7a7,7,0,0,1,7,7"/><path class="cls-25" d="M156.99913,149.99913a7,7,0,0,1-7,7v-7"/><path class="cls-26" d="M159.22219,154.96306l3.89285,2.09569a14.97,14.97,0,0,1-5.69152,5.85556l-2.20555-3.8358A10.50411,10.50411,0,0,0,159.22219,154.96306Z"/><path class="cls-27" d="M155.218,159.07851l2.20555,3.8358a14.84081,14.84081,0,0,1-7.42439,1.978v-4.42136A10.41467,10.41467,0,0,0,155.218,159.07851Z"/><path class="cls-28" d="M149.99913,160.47091v4.42136a14.80781,14.80781,0,0,1-7.05946-1.77724l2.09569-3.89435A10.419,10.419,0,0,0,149.99913,160.47091Z"/><path class="cls-29" d="M145.03536,159.22068l-2.09569,3.89435a14.942,14.942,0,0,1-5.85411-5.69151l3.8342-2.20389A10.51854,10.51854,0,0,0,145.03536,159.22068Z"/><path class="cls-30" d="M140.91976,155.21963l-3.8342,2.20389a14.82393,14.82393,0,0,1-1.97971-7.42438h4.42295A10.443,10.443,0,0,0,140.91976,155.21963Z"/><path class="cls-31" d="M136.88309,142.93968l3.8945,2.09553a10.41781,10.41781,0,0,0-1.24879,4.96393h-4.42295A14.8109,14.8109,0,0,1,136.88309,142.93968Z"/><path class="cls-32" d="M142.57506,137.08548l2.20373,3.83428a10.52791,10.52791,0,0,0-4.0012,4.11545l-3.8945-2.09553A14.95416,14.95416,0,0,1,142.57506,137.08548Z"/><path class="cls-33" d="M149.99913,135.10585v4.423a10.44132,10.44132,0,0,0-5.22034,1.39088l-2.20373-3.83428A14.826,14.826,0,0,1,149.99913,135.10585Z"/><path class="cls-34" d="M157.05859,136.88309l-2.09567,3.89451a10.41775,10.41775,0,0,0-4.96379-1.24872v-4.423A14.81108,14.81108,0,0,1,157.05859,136.88309Z"/><path class="cls-35" d="M162.9128,142.57491l-3.83429,2.20525a10.50962,10.50962,0,0,0-4.11559-4.00256l2.09567-3.89451A14.95535,14.95535,0,0,1,162.9128,142.57491Z"/><path class="cls-36" d="M164.89228,149.99914h-4.42137a10.40059,10.40059,0,0,0-1.3924-5.219l3.83429-2.20525A14.82535,14.82535,0,0,1,164.89228,149.99914Z"/><path class="cls-37" d="M160.47091,149.99914h4.42137a14.81237,14.81237,0,0,1-1.77724,7.05961l-3.89285-2.09569A10.41882,10.41882,0,0,0,160.47091,149.99914Z"/><path class="cls-38" d="M164.89228,149.99914h4.51886a19.321,19.321,0,0,1-2.31482,9.20162l-3.98128-2.142A14.81237,14.81237,0,0,0,164.89228,149.99914Z"/><path class="cls-39" d="M169.41114,149.99914h4.48173a23.79529,23.79529,0,0,1-2.84967,11.32658l-3.94688-2.125A19.321,19.321,0,0,0,169.41114,149.99914Z"/><path class="cls-40" d="M173.89287,149.99914h3.94869a27.71226,27.71226,0,0,1-3.32115,13.198l-3.47721-1.87142A23.79529,23.79529,0,0,0,173.89287,149.99914Z"/><path class="cls-41" d="M177.84156,149.99914h4.4292a32.12771,32.12771,0,0,1-3.84967,15.2982l-3.90068-2.1002A27.71226,27.71226,0,0,0,177.84156,149.99914Z"/><path class="cls-17" d="M186.76006,149.99914h4.19136a40.78249,40.78249,0,0,1-4.885,19.4135l-3.69211-1.98731A36.596,36.596,0,0,0,186.76006,149.99914Z"/><path class="cls-18" d="M182.27076,149.99914h4.4893a36.596,36.596,0,0,1-4.38575,17.42619l-3.95322-2.128A32.12771,32.12771,0,0,0,182.27076,149.99914Z"/><path class="cls-42" d="M190.95142,149.99914h4.44913a45.18736,45.18736,0,0,1-5.41654,21.52157l-3.91759-2.10807A40.78249,40.78249,0,0,0,190.95142,149.99914Z"/><path class="cls-16" d="M195.40055,149.99914H200a49.7698,49.7698,0,0,1-5.96406,23.702l-.00906-.00451-4.04287-2.176A45.18736,45.18736,0,0,0,195.40055,149.99914Z"/><path class="cls-43" d="M163.115,157.05875l3.98128,2.142a19.49832,19.49832,0,0,1-7.42137,7.63114l-2.25143-3.91759A14.97,14.97,0,0,0,163.115,157.05875Z"/><path class="cls-44" d="M167.09632,159.20076l3.94688,2.125a24.0166,24.0166,0,0,1-9.13342,9.393L159.675,166.8319A19.49832,19.49832,0,0,0,167.09632,159.20076Z"/><path class="cls-45" d="M171.0432,161.32572l3.47721,1.87142a27.97591,27.97591,0,0,1-10.64171,10.94475l-1.96892-3.42318A24.0166,24.0166,0,0,0,171.0432,161.32572Z"/><path class="cls-46" d="M174.52041,163.19714l3.90068,2.1002a32.41264,32.41264,0,0,1-12.33563,12.68487l-2.20676-3.84032A27.97591,27.97591,0,0,0,174.52041,163.19714Z"/><path class="cls-47" d="M178.42109,165.29734l3.95322,2.128a36.92886,36.92886,0,0,1-14.051,14.44973l-2.23783-3.89285A32.41264,32.41264,0,0,0,178.42109,165.29734Z"/><path class="cls-48" d="M182.37431,167.42533l3.69211,1.98731a41.14632,41.14632,0,0,1-15.65377,16.09567l-2.08936-3.63325A36.92886,36.92886,0,0,0,182.37431,167.42533Z"/><path class="cls-49" d="M186.06642,169.41264l3.91759,2.10807a45.61032,45.61032,0,0,1-17.35374,17.84664l-2.21762-3.859A41.14632,41.14632,0,0,0,186.06642,169.41264Z"/><path class="cls-50" d="M194.02688,173.69668l.00906.00451a50.23762,50.23762,0,0,1-19.11229,19.65348l-.00452-.00785-2.28886-3.97947A45.61032,45.61032,0,0,0,189.984,171.52071Z"/><path class="cls-51" d="M157.42352,162.91431l2.25143,3.91759a19.31558,19.31558,0,0,1-9.67582,2.57924v-4.51887A14.84081,14.84081,0,0,0,157.42352,162.91431Z"/><path class="cls-52" d="M159.675,166.8319l2.23483,3.88681a23.77826,23.77826,0,0,1-11.91065,3.17416v-4.48173A19.31558,19.31558,0,0,0,159.675,166.8319Z"/><path class="cls-53" d="M161.90978,170.71871l1.96892,3.42318a27.73909,27.73909,0,0,1-13.87957,3.69967v-3.94869A23.77826,23.77826,0,0,0,161.90978,170.71871Z"/><path class="cls-54" d="M163.8787,174.14189l2.20676,3.84032a32.128,32.128,0,0,1-16.08633,4.28856v-4.42921A27.73909,27.73909,0,0,0,163.8787,174.14189Z"/><path class="cls-55" d="M166.08546,177.98221l2.23783,3.89285a36.59607,36.59607,0,0,1-18.32416,4.885v-4.48927A32.128,32.128,0,0,0,166.08546,177.98221Z"/><path class="cls-56" d="M168.32329,181.87506l2.08936,3.63325a40.76434,40.76434,0,0,1-20.41352,5.4431V186.76A36.59607,36.59607,0,0,0,168.32329,181.87506Z"/><path class="cls-57" d="M170.41265,185.50831l2.21762,3.859a45.20288,45.20288,0,0,1-22.63114,6.0332v-4.44914A40.76434,40.76434,0,0,0,170.41265,185.50831Z"/><path class="cls-58" d="M174.91913,193.34682l.00452.00785A49.78035,49.78035,0,0,1,149.99913,200v-4.59945a45.20288,45.20288,0,0,0,22.63114-6.0332Z"/><path class="cls-59" d="M149.99913,164.89227v4.51887a19.32422,19.32422,0,0,1-9.20131-2.31482l2.14185-3.98129A14.80781,14.80781,0,0,0,149.99913,164.89227Z"/><path class="cls-60" d="M149.99913,169.41114v4.48173a23.79472,23.79472,0,0,1-11.32635-2.84969l2.125-3.94686A19.32422,19.32422,0,0,0,149.99913,169.41114Z"/><path class="cls-61" d="M149.99913,173.89287v3.94869a27.69478,27.69478,0,0,1-13.19792-3.32267l1.87157-3.47571A23.79472,23.79472,0,0,0,149.99913,173.89287Z"/><path class="cls-62" d="M149.99913,177.84156v4.42921a32.12645,32.12645,0,0,1-15.29812-3.84968l2.1002-3.9022A27.69478,27.69478,0,0,0,149.99913,177.84156Z"/><path class="cls-21" d="M149.99913,182.27077V186.76a36.5839,36.5839,0,0,1-17.42617-4.38575l2.12805-3.9532A32.12645,32.12645,0,0,0,149.99913,182.27077Z"/><path class="cls-20" d="M149.99913,186.76v4.19137a40.77533,40.77533,0,0,1-19.41365-4.885l1.98748-3.69213A36.5839,36.5839,0,0,0,149.99913,186.76Z"/><path class="cls-63" d="M149.99913,190.95141v4.44914a45.18836,45.18836,0,0,1-21.52155-5.41653l2.1079-3.9176A40.77533,40.77533,0,0,0,149.99913,190.95141Z"/><path class="cls-19" d="M149.99913,195.40055V200a49.75482,49.75482,0,0,1-23.70221-5.96558l.00468-.00755,2.176-4.04285A45.18836,45.18836,0,0,0,149.99913,195.40055Z"/><path class="cls-64" d="M142.93967,163.115l-2.14185,3.98129a19.49,19.49,0,0,1-7.62986-7.41987l3.9176-2.25293A14.942,14.942,0,0,0,142.93967,163.115Z"/><path class="cls-65" d="M140.79782,167.09632l-2.125,3.94686a24.02321,24.02321,0,0,1-9.39163-9.1334l3.88681-2.23333A19.49,19.49,0,0,0,140.79782,167.09632Z"/><path class="cls-66" d="M138.67278,171.04318l-1.87157,3.47571a27.94593,27.94593,0,0,1-10.94316-10.64019l3.4231-1.96892A24.02321,24.02321,0,0,0,138.67278,171.04318Z"/><path class="cls-67" d="M136.80121,174.51889l-2.1002,3.9022A32.42918,32.42918,0,0,1,122.01614,166.087l3.84191-2.20826A27.94593,27.94593,0,0,0,136.80121,174.51889Z"/><path class="cls-68" d="M134.701,178.42109l-2.12805,3.9532a36.92548,36.92548,0,0,1-14.44824-14.051l3.89142-2.23634A32.42918,32.42918,0,0,0,134.701,178.42109Z"/><path class="cls-69" d="M132.573,182.37429l-1.98748,3.69213a41.1488,41.1488,0,0,1-16.0956-15.65377l3.63484-2.08935A36.92548,36.92548,0,0,0,132.573,182.37429Z"/><path class="cls-70" d="M130.58548,186.06642l-2.1079,3.9176a45.60354,45.60354,0,0,1-17.84507-17.35225l3.85737-2.21912A41.1488,41.1488,0,0,0,130.58548,186.06642Z"/><path class="cls-71" d="M128.47758,189.984l-2.176,4.04285-.00468.00755a50.21876,50.21876,0,0,1-19.65159-19.11076l.00771-.00453,3.97947-2.28736A45.60354,45.60354,0,0,0,128.47758,189.984Z"/><path class="cls-72" d="M137.08556,157.42352l-3.9176,2.25293a19.3238,19.3238,0,0,1-2.58089-9.67731h4.51878A14.82393,14.82393,0,0,0,137.08556,157.42352Z"/><path class="cls-73" d="M133.168,159.67645l-3.88681,2.23333a23.78787,23.78787,0,0,1-3.17432-11.91064h4.48024A19.3238,19.3238,0,0,0,133.168,159.67645Z"/><path class="cls-74" d="M129.28115,161.90978l-3.4231,1.96892a27.70663,27.70663,0,0,1-3.70125-13.87956h3.95A23.78787,23.78787,0,0,0,129.28115,161.90978Z"/><path class="cls-75" d="M125.85805,163.8787l-3.84191,2.20826a32.12984,32.12984,0,0,1-4.28856-16.08782h4.42922A27.70663,27.70663,0,0,0,125.85805,163.8787Z"/><path class="cls-76" d="M122.01614,166.087l-3.89142,2.23634a36.58781,36.58781,0,0,1-4.88665-18.32416h4.48951A32.12984,32.12984,0,0,0,122.01614,166.087Z"/><path class="cls-77" d="M118.12472,168.3233l-3.63484,2.08935a40.77009,40.77009,0,0,1-5.44294-20.41351h4.19113A36.58781,36.58781,0,0,0,118.12472,168.3233Z"/><path class="cls-78" d="M114.48988,170.41265l-3.85737,2.21912a45.18987,45.18987,0,0,1-6.03487-22.63263h4.4493A40.77009,40.77009,0,0,0,114.48988,170.41265Z"/><path class="cls-79" d="M110.63251,172.63177l-3.97947,2.28736-.00771.00453A49.77544,49.77544,0,0,1,100,149.99914h4.59764A45.18987,45.18987,0,0,0,110.63251,172.63177Z"/><path class="cls-80" d="M132.9021,140.79767l3.981,2.142a14.8109,14.8109,0,0,0-1.77724,7.05946h-4.51878A19.31709,19.31709,0,0,1,132.9021,140.79767Z"/><path class="cls-81" d="M128.95668,138.67271l3.94542,2.125a19.31709,19.31709,0,0,0-2.315,9.20147h-4.48024A23.7932,23.7932,0,0,1,128.95668,138.67271Z"/><path class="cls-82" d="M125.47788,136.80114l3.4788,1.87157a23.7932,23.7932,0,0,0-2.84985,11.32643h-3.95A27.71323,27.71323,0,0,1,125.47788,136.80114Z"/><path class="cls-83" d="M121.57727,134.70093l3.90061,2.10021a27.71323,27.71323,0,0,0-3.32108,13.198h-4.42922A32.12748,32.12748,0,0,1,121.57727,134.70093Z"/><path class="cls-84" d="M117.62405,132.57294l3.95322,2.128a32.12748,32.12748,0,0,0-3.84969,15.29821h-4.48951A36.59091,36.59091,0,0,1,117.62405,132.57294Z"/><path class="cls-85" d="M113.932,130.58548l3.692,1.98746a36.59091,36.59091,0,0,0-4.386,17.4262h-4.19113A40.78373,40.78373,0,0,1,113.932,130.58548Z"/><path class="cls-86" d="M110.01434,128.47757l3.91766,2.10791a40.78373,40.78373,0,0,0-4.88506,19.41366h-4.4493A45.18661,45.18661,0,0,1,110.01434,128.47757Z"/><path class="cls-87" d="M105.97148,126.30161l4.04286,2.176a45.18661,45.18661,0,0,0-5.4167,21.52157H100a49.75421,49.75421,0,0,1,5.96536-23.7007Z"/><path class="cls-88" d="M140.32182,133.16789l2.25324,3.91759a14.95416,14.95416,0,0,0-5.692,5.8542l-3.981-2.142A19.50873,19.50873,0,0,1,140.32182,133.16789Z"/><path class="cls-89" d="M138.08857,129.28273l2.23325,3.88516a19.50873,19.50873,0,0,0-7.41972,7.62978l-3.94542-2.125A24.00556,24.00556,0,0,1,138.08857,129.28273Z"/><path class="cls-5" d="M136.11966,125.858l1.96891,3.42469a24.00556,24.00556,0,0,0-9.13189,9.39l-3.4788-1.87157A27.96008,27.96008,0,0,1,136.11966,125.858Z"/><path class="cls-4" d="M133.91283,122.01758l2.20683,3.84046a27.96008,27.96008,0,0,0-10.64178,10.9431l-3.90061-2.10021A32.41025,32.41025,0,0,1,133.91283,122.01758Z"/><path class="cls-3" d="M131.67505,118.12473l2.23778,3.89285a32.41025,32.41025,0,0,0-12.33556,12.68335l-3.95322-2.128A36.92612,36.92612,0,0,1,131.67505,118.12473Z"/><path class="cls-2" d="M129.584,114.48981l2.091,3.63492a36.92612,36.92612,0,0,0-14.051,14.44821l-3.692-1.98746A41.14517,41.14517,0,0,1,129.584,114.48981Z"/><path class="cls-90" d="M127.36793,110.63242l2.21611,3.85739a41.14517,41.14517,0,0,0-15.652,16.09567l-3.91766-2.10791A45.60669,45.60669,0,0,1,127.36793,110.63242Z"/><path class="cls-1" d="M125.07914,106.653l2.28879,3.97947a45.60669,45.60669,0,0,0-17.35359,17.84515l-4.04286-2.176-.00612-.00317a50.21987,50.21987,0,0,1,19.10917-19.65318Z"/><path class="cls-91" d="M169.41114,149.99914h-4.51886a14.82535,14.82535,0,0,0-1.97948-7.42423l3.91911-2.25173A19.317,19.317,0,0,1,169.41114,149.99914Z"/><path class="cls-92" d="M173.89287,149.99914h-4.48173a19.317,19.317,0,0,0-2.57923-9.676l3.8853-2.23469A23.78832,23.78832,0,0,1,173.89287,149.99914Z"/><path class="cls-93" d="M177.84156,149.99914h-3.94869a23.78832,23.78832,0,0,0-3.17566-11.91065l3.42467-1.9689A27.72259,27.72259,0,0,1,177.84156,149.99914Z"/><path class="cls-94" d="M182.27076,149.99914h-4.4292a27.72259,27.72259,0,0,0-3.69968-13.87955l3.84033-2.20676A32.1276,32.1276,0,0,1,182.27076,149.99914Z"/><path class="cls-95" d="M186.76006,149.99914h-4.4893a32.1276,32.1276,0,0,0-4.28855-16.08631l3.89133-2.23786A36.58875,36.58875,0,0,1,186.76006,149.99914Z"/><path class="cls-96" d="M190.95142,149.99914h-4.19136a36.58875,36.58875,0,0,0-4.88652-18.32417l3.63478-2.08933A40.76841,40.76841,0,0,1,190.95142,149.99914Z"/><path class="cls-97" d="M195.40055,149.99914h-4.44913a40.76841,40.76841,0,0,0-5.4431-20.4135l3.859-2.21778A45.19963,45.19963,0,0,1,195.40055,149.99914Z"/><path class="cls-98" d="M200,149.99914h-4.59945a45.19963,45.19963,0,0,0-6.03319-22.63128l3.97947-2.28872.00784-.00468A49.77748,49.77748,0,0,1,200,149.99914Z"/><path class="cls-99" d="M166.83191,140.32318l-3.91911,2.25173a14.95535,14.95535,0,0,0-5.85421-5.69182l2.14217-3.981A19.51725,19.51725,0,0,1,166.83191,140.32318Z"/><path class="cls-100" d="M170.71721,138.08849l-3.8853,2.23469a19.51725,19.51725,0,0,0-7.63115-7.42108l2.125-3.947A24.01454,24.01454,0,0,1,170.71721,138.08849Z"/><path class="cls-15" d="M174.14188,136.11959l-3.42467,1.9689a24.01454,24.01454,0,0,0-9.39149-9.1334l1.87141-3.4757A27.96124,27.96124,0,0,1,174.14188,136.11959Z"/><path class="cls-14" d="M177.98221,133.91283l-3.84033,2.20676a27.96124,27.96124,0,0,0-10.94475-10.6402l2.10022-3.9022A32.43513,32.43513,0,0,1,177.98221,133.91283Z"/><path class="cls-13" d="M181.87354,131.675l-3.89133,2.23786a32.43513,32.43513,0,0,0-12.68486-12.33564l2.12646-3.95321A36.92091,36.92091,0,0,1,181.87354,131.675Z"/><path class="cls-12" d="M185.50832,129.58564l-3.63478,2.08933a36.92091,36.92091,0,0,0-14.44973-14.051l1.98884-3.692A41.145,41.145,0,0,1,185.50832,129.58564Z"/><path class="cls-101" d="M189.36736,127.36786l-3.859,2.21778A41.145,41.145,0,0,0,169.41265,113.932l2.108-3.91608A45.59456,45.59456,0,0,1,189.36736,127.36786Z"/><path class="cls-11" d="M193.35467,125.07446l-.00784.00468-3.97947,2.28872a45.59456,45.59456,0,0,0-17.84666-17.35194l2.176-4.04452.00453-.00769A50.23432,50.23432,0,0,1,193.35467,125.07446Z"/><path class="cls-102" d="M159.20076,132.9021l-2.14217,3.981a14.81108,14.81108,0,0,0-7.05946-1.77724V130.587A19.317,19.317,0,0,1,159.20076,132.9021Z"/><path class="cls-103" d="M161.32572,128.95509l-2.125,3.947a19.317,19.317,0,0,0-9.20163-2.3151v-4.48174A23.79562,23.79562,0,0,1,161.32572,128.95509Z"/><path class="cls-104" d="M163.19713,125.47939l-1.87141,3.4757a23.79562,23.79562,0,0,0-11.32659-2.84983v-3.94853A27.697,27.697,0,0,1,163.19713,125.47939Z"/><path class="cls-105" d="M165.29735,121.57719l-2.10022,3.9022a27.697,27.697,0,0,0-13.198-3.32266v-4.42922A32.12908,32.12908,0,0,1,165.29735,121.57719Z"/><path class="cls-106" d="M167.42381,117.624l-2.12646,3.95321a32.12908,32.12908,0,0,0-15.29822-3.84968v-4.48792A36.58935,36.58935,0,0,1,167.42381,117.624Z"/><path class="cls-107" d="M169.41265,113.932l-1.98884,3.692a36.58935,36.58935,0,0,0-17.42468-4.38439v-4.19273A40.77342,40.77342,0,0,1,169.41265,113.932Z"/><path class="cls-108" d="M171.5207,110.01592l-2.108,3.91608a40.77342,40.77342,0,0,0-19.41352-4.88514v-4.44778A45.18577,45.18577,0,0,1,171.5207,110.01592Z"/><path class="cls-109" d="M173.70121,105.96371l-.00453.00769-2.176,4.04452a45.18577,45.18577,0,0,0-21.52157-5.41684V99.99993A49.77569,49.77569,0,0,1,173.70121,105.96371Z"/><path class="cls-110" d="M149.99913,130.587v4.51885a14.826,14.826,0,0,0-7.42407,1.97963l-2.25324-3.91759A19.32459,19.32459,0,0,1,149.99913,130.587Z"/><path class="cls-111" d="M149.99913,126.10526V130.587a19.32459,19.32459,0,0,0-9.67731,2.58089l-2.23325-3.88516A23.774,23.774,0,0,1,149.99913,126.10526Z"/><path class="cls-10" d="M149.99913,122.15673v3.94853a23.774,23.774,0,0,0-11.91056,3.17747l-1.96891-3.42469A27.72134,27.72134,0,0,1,149.99913,122.15673Z"/><path class="cls-9" d="M149.99913,117.72751v4.42922a27.72134,27.72134,0,0,0-13.87947,3.70131l-2.20683-3.84046A32.1158,32.1158,0,0,1,149.99913,117.72751Z"/><path class="cls-8" d="M149.99913,113.23959v4.48792a32.1158,32.1158,0,0,0-16.0863,4.29007l-2.23778-3.89285A36.59437,36.59437,0,0,1,149.99913,113.23959Z"/><path class="cls-7" d="M149.99913,109.04686v4.19273a36.59437,36.59437,0,0,0-18.32408,4.88514l-2.091-3.63492A40.77242,40.77242,0,0,1,149.99913,109.04686Z"/><path class="cls-112" d="M149.99913,104.59908v4.44778a40.77242,40.77242,0,0,0-20.41509,5.443l-2.21611-3.85739A45.20439,45.20439,0,0,1,149.99913,104.59908Z"/><path class="cls-6" d="M149.99913,99.99993v4.59915a45.20439,45.20439,0,0,0-22.6312,6.03334l-2.28879-3.97947-.00461-.00769A49.77715,49.77715,0,0,1,149.99913,99.99993Z"/></svg>