<svg id="b6db99c9-6d0c-41c8-80f3-adbc8b8e265d" data-name="Layer 1" xmlns="http://www.w3.org/2000/svg" xmlns:xlink="http://www.w3.org/1999/xlink" viewBox="0 0 200 250"><defs><style>.bf76da73-dec5-4a66-a94d-af1b6e8475f7{fill:none;}.fbae3d7f-abae-40d4-890a-e8e98979c7a2{fill:#666;}.f2807021-3c53-4698-9876-c1304b712001{fill:#eee;}.eba4edf3-ea3b-4f88-ae0c-3201885c264e{fill:url(#fc8fdd9a-470e-498f-9d3b-ab0d929fc49e);}</style><pattern id="fc8fdd9a-470e-498f-9d3b-ab0d929fc49e" data-name="New Pattern 2" width="133" height="81.39" patternTransform="translate(50.8 -18.9)" patternUnits="userSpaceOnUse" viewBox="0 0 133 81.4"><rect class="bf76da73-dec5-4a66-a94d-af1b6e8475f7" width="133" height="81.39"/><path class="fbae3d7f-abae-40d4-890a-e8e98979c7a2" d="M15.1,57.6a13.7,13.7,0,0,0-2-3.4,4.2,4.2,0,0,0-2.6-1.1,7,7,0,0,0-3.6.7,6.1,6.1,0,0,0-2.4,1.7,3.6,3.6,0,0,0-1.1,2.1,4.1,4.1,0,0,0,0,2.2,22.9,22.9,0,0,0,1.2,2.8l2.2,5.1A13.3,13.3,0,0,0,9,71.3a3.8,3.8,0,0,0,2.6,1.2,7,7,0,0,0,3.5-.8A6.1,6.1,0,0,0,18,69.5a5.2,5.2,0,0,0,.8-2.8,15.6,15.6,0,0,0-1.4-3.9l-.3-.7-4.5,2,1,2.2a17.3,17.3,0,0,1,.7,1.9.6.6,0,0,1-.5.6q-.6.3-.9,0a8.8,8.8,0,0,1-.9-1.6l-3.6-8a5.9,5.9,0,0,1-.6-1.8.6.6,0,0,1,.5-.7.6.6,0,0,1,.8,0,6.1,6.1,0,0,1,.9,1.6l1.3,3,4.5-2Z"/><path class="fbae3d7f-abae-40d4-890a-e8e98979c7a2" d="M27.6,53.5a37.6,37.6,0,0,0-1.9-3.7A4.4,4.4,0,0,0,24,48.2a3.7,3.7,0,0,0-2.3-.5,6.6,6.6,0,0,0-2.7.6A7.4,7.4,0,0,0,16.6,50a3.9,3.9,0,0,0-1.1,2.1,4.9,4.9,0,0,0,.1,2.4c.3.7.8,2,1.6,3.7l1.3,3c.8,1.8,1.4,3,1.8,3.7A5.2,5.2,0,0,0,22,66.5a3.9,3.9,0,0,0,2.4.5,6.6,6.6,0,0,0,2.7-.6,6.9,6.9,0,0,0,2.3-1.7,5,5,0,0,0,1.2-2.1,4.9,4.9,0,0,0-.2-2.4,28.1,28.1,0,0,0-1.5-3.7Zm-2.2,7.3a12.8,12.8,0,0,1,.8,2,.5.5,0,0,1-.4.6.6.6,0,0,1-.8-.1,6.9,6.9,0,0,1-.9-1.8l-3.7-8c-.4-.9-.6-1.5-.5-1.7s.2-.4.4-.5a.6.6,0,0,1,.7,0,4.7,4.7,0,0,1,.8,1.5Z"/><path class="fbae3d7f-abae-40d4-890a-e8e98979c7a2" d="M34,42l2.6,8.5L34,46.4c-.8-1.3-1.5-2.5-2.2-3.4L26,45.6l7.8,17.3,3.9-1.8L32.6,49.7l6.8,10.7,2.8-1.3L38.5,46.7l5.2,11.7,4-1.8L39.9,39.3Z"/><path class="fbae3d7f-abae-40d4-890a-e8e98979c7a2" d="M41.7,38.5l7.8,17.3,4.5-2L46.2,36.5Z"/><path class="fbae3d7f-abae-40d4-890a-e8e98979c7a2" d="M54.3,32.8l3.5,7.8L51.7,34,48,35.7,55.8,53l3.7-1.7L56,43.4l5.9,6.8,3.9-1.8L58,31.1Z"/><path class="fbae3d7f-abae-40d4-890a-e8e98979c7a2" d="M72.7,31.3a13,13,0,0,0-1.9-3.1,3.9,3.9,0,0,0-2.6-1.1,6,6,0,0,0-3.6.6,5.6,5.6,0,0,0-2.8,2.4,4.5,4.5,0,0,0-.7,2.8,27.4,27.4,0,0,0,1.4,3.7l2.3,5.1c.6,1.2,1,2.1,1.4,2.7a4.7,4.7,0,0,0,1.4,1.4,4.8,4.8,0,0,0,2.1.7,6.7,6.7,0,0,0,2.4-.4,3.3,3.3,0,0,0,1.4-1.2,2.5,2.5,0,0,0,.6-1.7l1,1L77.9,43l-4.1-9.3-5.3,2.4,1.2,2.6.9-.4.9,2a4.9,4.9,0,0,1,.6,1.7.7.7,0,0,1-.5.7.6.6,0,0,1-.8-.1,3.9,3.9,0,0,1-.8-1.4l-3.8-8.3a6.7,6.7,0,0,1-.6-1.7.6.6,0,0,1,.5-.6.5.5,0,0,1,.7.1,6.1,6.1,0,0,1,1,1.8l.7,1.6L73,32Z"/><path class="fbae3d7f-abae-40d4-890a-e8e98979c7a2" d="M87.3,23.4a9.1,9.1,0,0,0-1.7-2.8,3.7,3.7,0,0,0-2.3-.6,7.7,7.7,0,0,0-3.2.7,7,7,0,0,0-2.5,1.8,3.4,3.4,0,0,0-1,2.2,6.4,6.4,0,0,0,.8,3.1,7,7,0,0,0,1.4,2.1,4.4,4.4,0,0,0,1.5,1,15,15,0,0,0,3,.6,13.8,13.8,0,0,1,2.8.6,4.1,4.1,0,0,1,1.3,1.8,1.9,1.9,0,0,1,.2,1.2.6.6,0,0,1-.5.6c-.3.2-.5.2-.7,0a2.7,2.7,0,0,1-.8-1.1l-.9-2.1-4.2,1.8.5,1.2a9.7,9.7,0,0,0,1.8,2.8,3.8,3.8,0,0,0,2.4,1,7.2,7.2,0,0,0,3.4-.7,7.6,7.6,0,0,0,2.6-1.9,3.3,3.3,0,0,0,1-2.2,5.8,5.8,0,0,0-.8-3A6.4,6.4,0,0,0,89,28.2,15.7,15.7,0,0,0,83.9,27a3.4,3.4,0,0,1-1.7-.5,3.1,3.1,0,0,1-.9-1.2,1.5,1.5,0,0,1-.2-1.1.7.7,0,0,1,.4-.6.8.8,0,0,1,.7,0c.2.1.4.5.7,1.1l.5,1.3,4.2-1.9Z"/><path class="fbae3d7f-abae-40d4-890a-e8e98979c7a2" d="M100.6,20.6a37.6,37.6,0,0,0-1.9-3.7A3.8,3.8,0,0,0,97,15.3a4.6,4.6,0,0,0-2.3-.6,6.8,6.8,0,0,0-2.7.7A7.2,7.2,0,0,0,89.6,17a4.2,4.2,0,0,0-1.1,2.2,4.4,4.4,0,0,0,.1,2.3l1.6,3.8,1.3,2.9c.8,1.8,1.4,3,1.8,3.7A4.4,4.4,0,0,0,95,33.5a4.8,4.8,0,0,0,2.4.6,9,9,0,0,0,2.7-.7,6.7,6.7,0,0,0,2.3-1.6,5.3,5.3,0,0,0,1.2-2.2,4.4,4.4,0,0,0-.2-2.3,27.9,27.9,0,0,0-1.5-3.8Zm-2.2,7.2a12.8,12.8,0,0,1,.8,2,.7.7,0,0,1-1.2.6,6.9,6.9,0,0,1-.9-1.8l-3.7-8.1c-.4-.9-.6-1.5-.5-1.7a.7.7,0,0,1,.4-.5.6.6,0,0,1,.7.1,4.7,4.7,0,0,1,.8,1.5Z"/><path class="fbae3d7f-abae-40d4-890a-e8e98979c7a2" d="M112.5,15.2c-.8-1.8-1.4-3-1.8-3.7A4.4,4.4,0,0,0,109,9.9a4.8,4.8,0,0,0-2.4-.6,6.8,6.8,0,0,0-2.7.7,5.9,5.9,0,0,0-2.3,1.6,5.3,5.3,0,0,0-1.2,2.2,4.4,4.4,0,0,0,.2,2.3,27.9,27.9,0,0,0,1.5,3.8l1.3,2.9a37.6,37.6,0,0,0,1.9,3.7,3.8,3.8,0,0,0,1.7,1.6,4.6,4.6,0,0,0,2.3.6A9,9,0,0,0,112,28a7.2,7.2,0,0,0,2.4-1.6,4.2,4.2,0,0,0,1.1-2.2,4.4,4.4,0,0,0-.1-2.3l-1.6-3.8Zm-2.1,7.2a9.5,9.5,0,0,1,.7,2c.1.3-.1.5-.4.7a.6.6,0,0,1-.7-.1,10.2,10.2,0,0,1-1-1.8l-3.6-8.1a5.6,5.6,0,0,1-.6-1.7,1,1,0,0,1,.4-.5.8.8,0,0,1,.8.1l.8,1.5Z"/><path class="fbae3d7f-abae-40d4-890a-e8e98979c7a2" d="M117.2,4.4l3.5,7.8-6-6.7-3.8,1.7,7.9,17.3,3.7-1.7L119,15l5.9,6.8,3.9-1.8L121,2.7Z"/></pattern></defs><title>coming-soon</title><rect class="f2807021-3c53-4698-9876-c1304b712001" width="200" height="250"/><rect class="eba4edf3-ea3b-4f88-ae0c-3201885c264e" width="200" height="250"/></svg>