<?xml version="1.0" encoding="utf-8"?>
<!-- Generator: Adobe Illustrator 23.0.1, SVG Export Plug-In . SVG Version: 6.00 Build 0)  -->
<svg version="1.1" id="Layer_1" focusable="false" xmlns="http://www.w3.org/2000/svg" xmlns:xlink="http://www.w3.org/1999/xlink"
	 x="0px" y="0px" viewBox="0 0 32 32" style="enable-background:new 0 0 32 32;" xml:space="preserve">
<path d="M30.7,5.3H7.2L6.7,2.9C6.6,2.2,6.1,1.8,5.4,1.8H0.7C0.3,1.8,0,2.1,0,2.4v0.4c0,0.4,0.3,0.7,0.7,0.7H5l3.9,20.7
	C8.4,24.9,8,25.7,8,26.7c0,2,1.6,3.6,3.6,3.6s3.6-1.6,3.6-3.6c0-0.6-0.2-1.2-0.5-1.8h8.1c-0.3,0.5-0.5,1.2-0.5,1.8
	c0,2,1.6,3.6,3.6,3.6s3.6-1.6,3.6-3.6c0-1-0.4-1.9-1.1-2.5c-0.1-0.6-0.7-1-1.3-1H10.5l-0.7-3.6h18.4c0.6,0,1.2-0.4,1.3-1.1L32,6.9
	C32.1,6.1,31.5,5.3,30.7,5.3z M13.3,26.7c0,1-0.8,1.8-1.8,1.8s-1.8-0.8-1.8-1.8c0-1,0.8-1.8,1.8-1.8S13.3,25.7,13.3,26.7z
	 M25.8,28.4c-1,0-1.8-0.8-1.8-1.8c0-1,0.8-1.8,1.8-1.8s1.8,0.8,1.8,1.8C27.6,27.6,26.8,28.4,25.8,28.4z M27.9,17.8H9.5l-2-10.7h22.6
	L27.9,17.8z"/>
</svg>
