<?xml version="1.0" encoding="utf-8"?>
<!-- Generator: Adobe Illustrator 23.0.1, SVG Export Plug-In . SVG Version: 6.00 Build 0)  -->
<svg version="1.1" id="Layer_1" focusable="false" xmlns="http://www.w3.org/2000/svg" xmlns:xlink="http://www.w3.org/1999/xlink"
	 x="0px" y="0px" viewBox="0 0 32 32" style="enable-background:new 0 0 32 32;" xml:space="preserve">
<path d="M16,25.5c-4.1,0-7.5-3.4-7.5-7.5s3.4-7.5,7.5-7.5s7.5,3.4,7.5,7.5S20.1,25.5,16,25.5z M16,12.5c-3,0-5.5,2.5-5.5,5.5
	s2.5,5.5,5.5,5.5s5.5-2.5,5.5-5.5S19,12.5,16,12.5z M14,18c0-1.1,0.9-2,2-2c0.5,0,1-0.4,1-1s-0.5-1-1-1c-2.2,0-4,1.8-4,4
	c0,0.5,0.4,1,1,1S14,18.5,14,18z M20.3,4c0.2,0,0.4,0.1,0.5,0.3L22.1,8H29c0.5,0,1,0.4,1,1v18c0,0.5-0.5,1-1,1H3c-0.5,0-1-0.5-1-1V9
	c0-0.6,0.5-1,1-1h6.9l1.3-3.3C11.3,4.3,11.7,4,12.1,4H20.3 M20.3,2h-8.2c-1.2,0-2.4,0.8-2.8,1.9L8.5,6H3C1.3,6,0,7.3,0,9v18
	c0,1.7,1.3,3,3,3h26c1.7,0,3-1.3,3-3V9c0-1.7-1.3-3-3-3h-5.5l-0.9-2.4C22.2,2.6,21.3,2,20.3,2L20.3,2z"/>
</svg>
