<?xml version="1.0" encoding="utf-8"?>
<!-- Generator: Adobe Illustrator 23.0.1, SVG Export Plug-In . SVG Version: 6.00 Build 0)  -->
<svg version="1.1" id="Layer_1" focusable="false" xmlns="http://www.w3.org/2000/svg" xmlns:xlink="http://www.w3.org/1999/xlink"
	 x="0px" y="0px" viewBox="0 0 32 28" style="enable-background:new 0 0 32 28;" xml:space="preserve">
<path d="M31.8,12.3L17.3,0.4c-0.7-0.6-1.8-0.6-2.5,0L0.2,12.3C0,12.5-0.1,12.8,0.1,13l0.6,0.8C0.9,14,1.2,14,1.4,13.9L4,11.8V27
	c0,0.6,0.4,1,1,1h8c0.6,0,1-0.4,1-1v-8l4,0v8c0,0.6,0.4,1,1,1l8,0c0.6,0,1-0.4,1-1V11.8l2.6,2.1c0.2,0.2,0.5,0.1,0.7-0.1l0.6-0.8
	C32.1,12.8,32,12.5,31.8,12.3C31.8,12.3,31.8,12.3,31.8,12.3L31.8,12.3z M26,26L26,26l-6,0v-8c0-0.6-0.4-1-1-1l-6,0
	c-0.6,0-1,0.4-1,1c0,0,0,0,0,0v8H6V10.2L16,2l10,8.2L26,26z"/>
</svg>
