<?xml version="1.0" encoding="utf-8"?>
<!-- Generator: Adobe Illustrator 23.0.1, SVG Export Plug-In . SVG Version: 6.00 Build 0)  -->
<svg version="1.1" id="Layer_1" focusable="false" xmlns="http://www.w3.org/2000/svg" xmlns:xlink="http://www.w3.org/1999/xlink"
	 x="0px" y="0px" viewBox="0 0 32 32" style="enable-background:new 0 0 32 32;" xml:space="preserve">
<path d="M16,21.4c-1,0-1.8,0.8-1.8,1.8S15,25,16,25s1.8-0.8,1.8-1.8S17,21.4,16,21.4z M16.5,19.9h-1c-0.4,0-0.8-0.3-0.8-0.8v0
	c0-4.5,5-4.1,5-6.9c0-1.3-1.1-2.6-3.7-2.6c-1.9,0-2.9,0.6-3.8,1.9c-0.3,0.3-0.7,0.4-1,0.2L10.3,11c-0.4-0.3-0.4-0.8-0.2-1.1
	C11.5,8.1,13.1,7,16,7c3.4,0,6.3,1.9,6.3,5.2c0,4.3-5,4.1-5,6.9v0C17.3,19.5,16.9,19.9,16.5,19.9L16.5,19.9z M16,2.1
	c7.7,0,13.9,6.2,13.9,13.9c0,7.7-6.2,13.9-13.9,13.9C8.3,29.9,2.1,23.7,2.1,16C2.1,8.3,8.3,2.1,16,2.1 M16,0C7.2,0,0,7.2,0,16
	c0,8.8,7.2,16,16,16s16-7.2,16-16C32,7.2,24.8,0,16,0z"/>
</svg>
