<?xml version="1.0" encoding="utf-8"?>
<!-- Generator: Adobe Illustrator 23.0.1, SVG Export Plug-In . SVG Version: 6.00 Build 0)  -->
<svg version="1.1" id="Layer_1" focusable="false" xmlns="http://www.w3.org/2000/svg" xmlns:xlink="http://www.w3.org/1999/xlink"
	 x="0px" y="0px" viewBox="0 0 32 32" style="enable-background:new 0 0 32 32;" xml:space="preserve">
<path d="M29.3,3.6H6.2c-1.5,0-2.7,1.2-2.7,2.7v0.9H2.7C1.2,7.1,0,8.3,0,9.8v16c0,1.5,1.2,2.7,2.7,2.7h23.1c1.5,0,2.7-1.2,2.7-2.7
	v-0.9h0.9c1.5,0,2.7-1.2,2.7-2.7v-16C32,4.7,30.8,3.6,29.3,3.6z M26.7,25.8c0,0.5-0.4,0.9-0.9,0.9H2.7c-0.5,0-0.9-0.4-0.9-0.9v-16
	c0-0.5,0.4-0.9,0.9-0.9h0.9v13.3c0,1.5,1.2,2.7,2.7,2.7h20.4V25.8z M30.2,22.2c0,0.5-0.4,0.9-0.9,0.9H6.2c-0.5,0-0.9-0.4-0.9-0.9
	v-16c0-0.5,0.4-0.9,0.9-0.9h23.1c0.5,0,0.9,0.4,0.9,0.9V22.2z M9.8,12.9c1.7,0,3.1-1.4,3.1-3.1s-1.4-3.1-3.1-3.1S6.7,8.1,6.7,9.8
	S8.1,12.9,9.8,12.9z M9.8,8.4c0.7,0,1.3,0.6,1.3,1.3s-0.6,1.3-1.3,1.3s-1.3-0.6-1.3-1.3S9,8.4,9.8,8.4z M23.2,9.7
	c-0.5-0.5-1.4-0.5-1.9,0L16,15l-1.7-1.7c-0.5-0.5-1.4-0.5-1.9,0l-4.9,4.9c-0.3,0.3-0.4,0.6-0.4,0.9v1.6c0,0.4,0.3,0.7,0.7,0.7h20
	c0.4,0,0.7-0.3,0.7-0.7v-5.1c0-0.4-0.1-0.7-0.4-0.9L23.2,9.7z M26.7,19.6H8.9v-0.3l4.4-4.4l2.7,2.7l6.2-6.2l4.4,4.4V19.6z"/>
</svg>
