<?xml version="1.0" encoding="utf-8"?>
<!-- Generator: Adobe Illustrator 23.0.1, SVG Export Plug-In . SVG Version: 6.00 Build 0)  -->
<svg version="1.1" id="Layer_1" focusable="false" xmlns="http://www.w3.org/2000/svg" xmlns:xlink="http://www.w3.org/1999/xlink"
	 x="0px" y="0px" viewBox="0 0 32 32" style="enable-background:new 0 0 32 32;" xml:space="preserve">
<path d="M31.6,8.1H12.4C12.2,8.1,12,8,12,7.8V6.3c0-0.2,0.2-0.4,0.4-0.4h19.2C31.8,5.9,32,6,32,6.3v1.5C32,8,31.8,8.1,31.6,8.1z
	 M32,17.8v-1.5c0-0.2-0.2-0.4-0.4-0.4H12.4c-0.2,0-0.4,0.2-0.4,0.4v1.5c0,0.2,0.2,0.4,0.4,0.4h19.2C31.8,18.1,32,18,32,17.8z
	 M32,27.7v-1.5c0-0.2-0.2-0.4-0.4-0.4H12.4c-0.2,0-0.4,0.2-0.4,0.4v1.5c0,0.2,0.2,0.4,0.4,0.4h19.2C31.8,28.1,32,28,32,27.7z
	 M4.3,24.5c-1.2,0-2.2,1-2.2,2.2S3,29,4.3,29s2.2-1,2.2-2.2S5.5,24.5,4.3,24.5z M10.7,3.7l-0.5-0.5c-0.3-0.3-0.8-0.3-1.1,0L4.2,8.2
	L1.8,5.8c-0.3-0.3-0.8-0.3-1.1,0L0.2,6.3c-0.3,0.3-0.3,0.8,0,1.1l3.4,3.4c0.3,0.3,0.8,0.3,1.1,0l0,0l6-6C11,4.5,11,4,10.7,3.7
	L10.7,3.7z M10.7,13.7l-0.5-0.5c-0.3-0.3-0.8-0.3-1.1,0l-4.9,4.9l-2.4-2.4c-0.3-0.3-0.8-0.3-1.1,0l-0.5,0.6c-0.3,0.3-0.3,0.8,0,1.1
	l3.4,3.4c0.3,0.3,0.8,0.3,1.1,0l0,0l6-6C11,14.5,11,14,10.7,13.7L10.7,13.7z"/>
</svg>
