<?xml version="1.0" encoding="utf-8"?>
<!-- Generator: Adobe Illustrator 23.0.1, SVG Export Plug-In . SVG Version: 6.00 Build 0)  -->
<svg version="1.1" id="Layer_1" focusable="false" xmlns="http://www.w3.org/2000/svg" xmlns:xlink="http://www.w3.org/1999/xlink"
	 x="0px" y="0px" viewBox="0 0 32 32" style="enable-background:new 0 0 32 32;" xml:space="preserve">
<path d="M31.8,30.1L23.7,22c-0.1-0.1-0.3-0.2-0.5-0.2h-0.6c2.1-2.3,3.5-5.4,3.5-8.8c0-7.2-5.8-13-13-13S0,5.8,0,13s5.8,13,13,13
	c3.4,0,6.5-1.3,8.8-3.4v0.6c0,0.2,0.1,0.4,0.2,0.5l8.1,8.1c0.3,0.3,0.8,0.3,1.1,0l0.6-0.6C32.1,30.9,32.1,30.4,31.8,30.1z M13,24
	C6.9,24,2,19.1,2,13S6.9,2,13,2s11,4.9,11,11S19.1,24,13,24z"/>
</svg>
