<?xml version="1.0" encoding="utf-8"?>
<!-- Generator: Adobe Illustrator 23.0.1, SVG Export Plug-In . SVG Version: 6.00 Build 0)  -->
<svg version="1.1" id="Layer_1" focusable="false" xmlns="http://www.w3.org/2000/svg" xmlns:xlink="http://www.w3.org/1999/xlink"
	 x="0px" y="0px" viewBox="0 0 32 32" style="enable-background:new 0 0 32 32;" xml:space="preserve">
<path d="M31.3,14H18V0.7C18,0.3,17.7,0,17.3,0h-2.7C14.3,0,14,0.3,14,0.7V14H0.7C0.3,14,0,14.3,0,14.7v2.7C0,17.7,0.3,18,0.7,18H14
	v13.3c0,0.4,0.3,0.7,0.7,0.7h2.7c0.4,0,0.7-0.3,0.7-0.7V18h13.3c0.4,0,0.7-0.3,0.7-0.7v-2.7C32,14.3,31.7,14,31.3,14z"/>
</svg>
