<?xml version="1.0" encoding="utf-8"?>
<!-- Generator: Adobe Illustrator 22.1.0, SVG Export Plug-In . SVG Version: 6.00 Build 0)  -->
<svg version="1.1" id="Layer_2" xmlns="http://www.w3.org/2000/svg" xmlns:xlink="http://www.w3.org/1999/xlink" x="0px" y="0px"
	 viewBox="0 0 370.4 60" style="enable-background:new 0 0 370.4 60;" xml:space="preserve">
<style type="text/css">
	.st0{fill-rule:evenodd;clip-rule:evenodd;fill:#EB1E3F;}
	.st1{display:none;}
	.st2{display:inline;fill-rule:evenodd;clip-rule:evenodd;fill:#6EC9F4;}
	.st3{display:inline;fill-rule:evenodd;clip-rule:evenodd;fill:#70C8F1;}
	.st4{display:inline;}
	.st5{display:inline;clip-path:url(#SVGID_2_);}
	.st6{fill-rule:evenodd;clip-rule:evenodd;fill:#3EB44A;}
	.st7{fill:#2C9245;}
	.st8{display:inline;fill-rule:evenodd;clip-rule:evenodd;fill:#3EB44A;}
	.st9{display:inline;fill:#2E9145;}
</style>
<g>
	<path id="I" d="M0.2,58.9h9.5L9.6,19.3H0.1L0.2,58.9z M1.5,12.7c1,1,2.2,1.5,3.7,1.5c1.4,0,2.7-0.5,3.7-1.5c1-1,1.5-2.2,1.5-3.7
		c0-1.4-0.5-2.7-1.5-3.7c-1-1-2.2-1.5-3.7-1.5c-1.4,0-2.7,0.5-3.7,1.5C0.5,6.3,0,7.6,0,9C0,10.4,0.5,11.6,1.5,12.7z"/>
	<path id="L" d="M14.7,58.9h32v-8.5H24.1l0.2-47.2h-9.5V58.9z"/>
	<g>
		<g>
			<g>
				<path class="st0" d="M98,11.7c-0.4-1.3-4.7-11.2-10.4-4.9s1,12.1,1,12.1c3.2,2.7,5.8,3.5,8.2,1.5C99.3,18.3,98.8,14.5,98,11.7z
					 M71.8,18c7.1,3.8,10.2-1.2,10.2-1.2c4-5.7-3.3-14.4-7.1-16.1s-6.8,0.4-7.8,3C66.2,6.1,64.7,14.1,71.8,18z M54.1,24.3
					c0,0,5.2,2.8,9.5-4.1c4.3-6.9-1-13.1-3.1-14.8c-2.2-1.8-5.8-2.1-8.3,1.3C49.8,10.1,47.8,21.3,54.1,24.3z M44.4,18.4
					c-8.1-2.6-6.9,8.1-6.6,9.4c0.7,2.8,2.1,6.3,5.4,6.9c3.1,0.5,4.9-1.4,6.4-5.4C49.6,29.4,52.5,21,44.4,18.4z M85.4,20.6
					c-6.2-1.1-12.2,2.6-15,8.6c-5.4-3.9-12.5-4.1-17.3,0c-5.8,4.9-6.1,14.3-0.7,20.9c7.3,8.7,26.2,9.8,26.2,9.8
					c0,0,15.8-10.5,17.8-21.6C97.9,29.9,93,22,85.4,20.6z"/>
			</g>
		</g>
	</g>
	<path id="V" d="M140.3,22.3l-8.8-3.7l-12.2,28.1l-12.1-27.8l-8.8,3.7L114.3,59h10.3L140.3,22.3z"/>
	<path id="E" d="M175,45.5c-3.2,2.2-6.3,3.7-9.3,4.3c-3,0.6-5.7,0.7-8.1,0.2c-2.4-0.5-4.3-1.4-5.8-2.8c-1.5-1.4-2.3-3.1-2.5-5
		l28.2,0.1c0.5-5.1,0.2-9.2-1.1-12.4c-1.2-3.2-2.9-5.6-5.1-7.3c-2.1-1.7-4.5-2.8-7.1-3.3c-2.6-0.5-5-0.6-7.1-0.3
		c-3,0.4-5.6,1.3-7.9,2.7c-2.2,1.4-4.1,3.2-5.5,5.2c-1.4,2-2.5,4.3-3.1,6.8c-0.7,2.5-1,4.9-0.9,7.4c0.1,3.3,0.7,6.1,1.8,8.5
		c1.2,2.4,2.7,4.3,4.7,5.9c2,1.5,4.2,2.6,6.8,3.3c2.6,0.7,5.3,0.9,8.1,0.8c2.8-0.1,5.7-0.7,8.7-1.6c3-0.9,5.8-2.2,8.6-3.9L175,45.5z
		 M151.1,33.8c0.8-2.1,2.2-3.7,4-4.7c1.8-1,3.6-1.5,5.5-1.5c1.9,0,3.5,0.6,5,1.6c1.5,1.1,2.3,2.6,2.5,4.7L151.1,33.8z"/>
	<path id="P" d="M191.7,3.3h-9.5l0.2,56h9.4V41.2c2.1,1.6,4.4,2.7,6.9,3.3c2.5,0.6,4.9,0.7,7.4,0.4c2.4-0.3,4.8-1,7.1-2.1
		c2.3-1.1,4.3-2.7,6-4.5c1.8-1.9,3.2-4.1,4.3-6.7c1.1-2.6,1.6-5.4,1.6-8.6c0-3.5-0.5-6.5-1.5-9c-1-2.5-2.4-4.5-4.1-6.1
		c-1.7-1.6-3.7-2.7-6-3.3c-2.3-0.6-4.6-0.8-7.1-0.6c-2.5,0.2-5,0.9-7.5,1.9c-2.5,1.1-4.9,2.6-7.1,4.4V3.3z M191.7,20.1
		c1.2-1.5,2.6-2.8,4.2-3.9c1.6-1,3.3-1.8,5.1-2.2c1.8-0.4,3.5-0.6,5.2-0.5c1.7,0.1,3.2,0.5,4.5,1.3c1.3,0.8,2.3,1.9,3,3.3
		c0.7,1.4,1,3.1,0.8,5.2c-0.2,2.6-1.2,4.8-3,6.7c-1.8,1.9-3.8,3.2-6.2,3.9c-2.4,0.8-4.8,0.9-7.3,0.4c-2.5-0.5-4.6-1.9-6.3-4.1V20.1z
		"/>
	<path id="A" d="M259,59h9.9l-0.2-39.6H259v6.5c-1.9-2.1-4-3.7-6.3-4.8c-2.3-1.1-4.7-1.6-7.1-1.7c-2.4-0.1-4.8,0.4-7.1,1.2
		c-2.3,0.9-4.4,2.2-6.2,3.9c-1.8,1.7-3.3,3.8-4.4,6.3c-1.1,2.5-1.7,5.3-1.7,8.5c-0.1,3.5,0.5,6.5,1.6,9c1.1,2.5,2.6,4.6,4.4,6.2
		c1.8,1.6,3.9,2.7,6.2,3.3c2.3,0.6,4.7,0.8,7.1,0.6c2.4-0.3,4.9-1,7.2-2.1c2.4-1.2,4.5-2.8,6.4-4.9V59z M259,41.7
		c-3.1,3.4-6.1,5.6-8.9,6.6c-2.8,1-5.3,1.2-7.4,0.6c-2.1-0.6-3.8-1.9-5.1-3.7c-1.3-1.9-1.9-4-1.9-6.3c0-2.5,0.7-4.7,2.2-6.4
		c1.5-1.7,3.4-2.8,5.7-3.3c2.3-0.5,4.8-0.3,7.6,0.7c2.7,1,5.3,2.8,7.8,5.6V41.7z"/>
	<path id="W" d="M303.8,48.1l4.5,10.9h10.3l15.8-36.8l-8.8-3.7l-12.1,27.8l-6-13.4H300l-6,13.8l-12.1-27.8l-8.8,3.7L288.9,59h10.3
		L303.8,48.1z"/>
	<path id="S" d="M356.4,51.3c-1.3,0.5-2.7,0.7-4.2,0.4c-1.5-0.3-3-1-4.3-2.1c-1.4-1.1-2.3-2.8-2.8-5l-7.9,1.6c0.2,2.9,1,5.3,2.5,7.2
		c1.5,2,3.4,3.5,5.7,4.6c2.3,1.1,4.7,1.7,7.3,1.9c2.6,0.2,5.1-0.1,7.5-0.8c2.4-0.7,4.4-1.8,6.2-3.3c1.8-1.5,3-3.5,3.5-5.9
		c0.5-2.2,0.5-4,0-5.4c-0.6-1.4-1.4-2.6-2.7-3.5c-1.2-0.9-2.7-1.6-4.4-2.1c-1.7-0.5-3.4-1-5.2-1.4c-1.8-0.4-3.5-0.8-5.1-1.2
		c-1.6-0.4-3-0.8-4.1-1.4c-1.1-0.6-1.9-1.4-2.3-2.3c-0.4-1-0.3-2.2,0.4-3.7c0.3-0.8,1-1.3,1.9-1.5c1-0.2,2-0.1,3.1,0.3
		c1.1,0.4,2.2,1.1,3.2,2c1,1,1.8,2.2,2.3,3.8l9.7-3.5c-1.1-2.6-2.5-4.7-4.3-6.4c-1.7-1.6-3.6-2.9-5.6-3.7c-2-0.8-4-1.2-6.1-1.2
		c-2.1,0-4,0.4-5.8,1.1c-1.8,0.7-3.4,1.8-4.7,3.2c-1.4,1.4-2.3,3.1-2.7,5.1c-0.7,3.4-0.7,6.1,0.1,8.1c0.8,2,2,3.5,3.6,4.7
		c1.6,1.1,3.5,1.9,5.5,2.4c2.1,0.5,4,1,5.8,1.4c1.8,0.4,3.4,0.9,4.6,1.4c1.2,0.5,1.8,1.4,1.6,2.6C358.5,49.9,357.7,50.7,356.4,51.3z
		"/>
</g>
<g class="st1">
	<path class="st2" d="M123.6-36l-0.7-0.4l-3.5,2l0-0.7l-0.7-0.4L118-35l0,1.5l-2.9,1.7l0-1.5l-0.7-0.4l-0.7,0.4l0,2.3l-1.5,0.8
		l-2-1.1V-33l2-1.2V-35l-0.7-0.4l-1.3,0.8V-38l1.3-0.7v-0.8l-0.7-0.4l-0.6,0.3v-4l-0.7-0.4l-0.7,0.4v4l-0.6-0.4l-0.7,0.4v0.8
		l1.3,0.8v3.3l-1.3-0.8l-0.7,0.4v0.8l2,1.2v1.7l-2,1.1l-1.5-0.8l0-2.3l-0.7-0.4l-0.7,0.4l0,1.5l-2.9-1.7l0-1.5l-0.7-0.4L99.8-35
		l0,0.7l-3.5-2L95.6-36v0.8l3.5,2l-0.6,0.3v0.8l0.7,0.4l1.3-0.7l2.9,1.7l-1.3,0.8v0.8l0.7,0.4l2-1.1l1.5,0.8v2.2l-1.5,0.8l-2-1.1
		l-0.7,0.4v0.8l1.3,0.7l-2.9,1.7l-1.3-0.7l-0.7,0.4v0.8l0.6,0.3l-3.5,2v0.8l0.7,0.4l3.5-2l0,0.7l0.7,0.4l0.7-0.4l0-1.5l2.9-1.7
		l0,1.5l0.7,0.4l0.7-0.4l0-2.3l1.5-0.8l2,1.1l0,1.7l-2,1.2l0,0.8l0.7,0.4l1.3-0.8v3.3l-1.3,0.7v0.8l0.7,0.4l0.6-0.3v4l0.7,0.4
		l0.7-0.4v-4l0.6,0.4l0.7-0.4v-0.8l-1.3-0.8v-3.3l1.3,0.8l0.7-0.4v-0.8l-2-1.2v-1.7l2-1.1l1.5,0.8l0,2.3l0.7,0.4l0.7-0.4l0-1.5
		l2.9,1.7l0,1.5l0.7,0.4l0.7-0.4l0-0.7l3.5,2l0.7-0.4v-0.8l-3.5-2l0.6-0.3v-0.8l-0.7-0.4l-1.3,0.7l-2.9-1.7l1.3-0.8v-0.8l-0.7-0.4
		l-2,1.1l-1.5-0.8V-29l1.5-0.8l2,1.1l0.7-0.4v-0.8l-1.3-0.7l2.9-1.7l1.3,0.7l0.7-0.4l0-0.8l-0.6-0.3l3.5-2V-36z"/>
	<path class="st2" d="M228.9,76.8l-0.7-0.4l-3.5,2l0-0.7l-0.7-0.4l-0.7,0.4l0,1.5l-2.9,1.7l0-1.5l-0.7-0.4l-0.7,0.4l0,2.3l-1.5,0.8
		l-2-1.1v-1.7l2-1.2v-0.8l-0.7-0.4l-1.3,0.8v-3.3l1.3-0.7v-0.8l-0.7-0.4l-0.6,0.3v-4l-0.7-0.4l-0.7,0.4v4l-0.6-0.4l-0.7,0.4V74
		l1.3,0.8v3.3l-1.3-0.8l-0.7,0.4v0.8l2,1.2v1.7l-2,1.1l-1.5-0.8l0-2.3l-0.7-0.4l-0.7,0.4l0,1.5l-2.9-1.7l0-1.5l-0.7-0.4l-0.7,0.4
		l0,0.7l-3.5-2l-0.7,0.4v0.8l3.5,2l-0.6,0.3v0.8l0.7,0.4l1.3-0.7l2.9,1.7l-1.3,0.8v0.8L208,84l2-1.1l1.5,0.8v2.2l-1.5,0.8l-2-1.1
		l-0.7,0.4v0.8l1.3,0.7l-2.9,1.7l-1.3-0.7l-0.7,0.4v0.8l0.6,0.3l-3.5,2v0.8l0.7,0.4l3.5-2l0,0.7l0.7,0.4l0.7-0.4l0-1.5l2.9-1.7
		l0,1.5l0.7,0.4l0.7-0.4l0-2.3l1.5-0.8l2,1.1l0,1.7l-2,1.2l0,0.8l0.7,0.4l1.3-0.8v3.3l-1.3,0.7v0.8l0.7,0.4l0.6-0.3v4l0.7,0.4
		l0.7-0.4v-4l0.6,0.4l0.7-0.4v-0.8l-1.3-0.8v-3.3l1.3,0.8l0.7-0.4v-0.8l-2-1.2v-1.7l2-1.1l1.5,0.8l0,2.3l0.7,0.4l0.7-0.4l0-1.5
		l2.9,1.7l0,1.5l0.7,0.4l0.7-0.4l0-0.7l3.5,2l0.7-0.4V92l-3.5-2l0.6-0.3v-0.8l-0.7-0.4l-1.3,0.7l-2.9-1.7l1.3-0.8V86l-0.7-0.4
		l-2,1.1l-1.5-0.8v-2.2l1.5-0.8l2,1.1l0.7-0.4v-0.8l-1.3-0.7l2.9-1.7l1.3,0.7l0.7-0.4l0-0.8l-0.6-0.3l3.5-2V76.8z"/>
	<path class="st2" d="M35,80.4l-0.5-0.3L32,81.5l0-0.5l-0.5-0.3L31,81l0,1.1L29,83.3l0-1.1l-0.5-0.3L28,82.2l0,1.7l-1.1,0.6
		l-1.4-0.8v-1.2l1.4-0.8v-0.6l-0.5-0.3l-0.9,0.5v-2.4l0.9-0.5v-0.6l-0.5-0.3l-0.4,0.2v-2.9L25,74.6l-0.5,0.3v2.9l-0.4-0.3l-0.5,0.3
		v0.6l0.9,0.5v2.4l-0.9-0.6l-0.5,0.3v0.6l1.4,0.8v1.2l-1.4,0.8l-1.1-0.6l0-1.6l-0.5-0.3l-0.5,0.3l0,1.1L19,82.1l0-1.1l-0.5-0.3
		L18,81.1l0,0.5l-2.5-1.4L15,80.4v0.6l2.5,1.4l-0.4,0.2v0.6l0.5,0.3l0.9-0.5l2.1,1.2l-1,0.5v0.6l0.5,0.3l1.4-0.8l1.1,0.6v1.6
		l-1.1,0.6l-1.4-0.8L19.7,87v0.6l0.9,0.5l-2.1,1.2l-0.9-0.5L17.1,89v0.6l0.4,0.2L15,91.3v0.6l0.5,0.3l2.5-1.4l0,0.5l0.5,0.3l0.5-0.3
		l0-1.1l2.1-1.2l0,1.1l0.5,0.3l0.5-0.3l0-1.7l1.1-0.6l1.4,0.8l0,1.2l-1.4,0.8l0,0.6l0.5,0.3l0.9-0.5v2.4l-0.9,0.5v0.6l0.5,0.3
		l0.4-0.2v2.9l0.5,0.3l0.5-0.3v-2.9l0.4,0.3l0.5-0.3v-0.6l-0.9-0.5v-2.4l0.9,0.6l0.5-0.3v-0.6l-1.4-0.8v-1.2l1.4-0.8l1.1,0.6l0,1.6
		l0.5,0.3L29,90l0-1.1l2.1,1.2l0,1.1l0.5,0.3l0.5-0.3l0-0.5l2.5,1.4l0.5-0.3v-0.6l-2.5-1.4l0.4-0.2V89l-0.5-0.3l-0.9,0.5l-2.1-1.2
		l1-0.5V87l-0.5-0.3l-1.4,0.8l-1.1-0.6v-1.6l1.1-0.6l1.4,0.8l0.5-0.3v-0.6l-0.9-0.5l2.1-1.2l0.9,0.5l0.5-0.3l0-0.6l-0.4-0.2l2.5-1.4
		V80.4z"/>
	<path class="st2" d="M324.1-14.2l-0.5-0.3l-2.5,1.4l0-0.5l-0.5-0.3l-0.5,0.3l0,1.1l-2.1,1.2l0-1.1l-0.5-0.3l-0.5,0.3l0,1.7
		l-1.1,0.6l-1.4-0.8v-1.2l1.4-0.8v-0.6l-0.5-0.3l-0.9,0.5v-2.4l0.9-0.5v-0.6L315-17l-0.4,0.2v-2.9l-0.5-0.3l-0.5,0.3v2.9l-0.4-0.3
		l-0.5,0.3v0.6l0.9,0.5v2.4l-0.9-0.6l-0.5,0.3v0.6l1.4,0.8v1.2l-1.4,0.8l-1.1-0.6l0-1.6l-0.5-0.3l-0.5,0.3l0,1.1l-2.1-1.2l0-1.1
		l-0.5-0.3l-0.5,0.3l0,0.5l-2.5-1.4l-0.5,0.3v0.6l2.5,1.4l-0.4,0.2v0.6l0.5,0.3l0.9-0.5l2.1,1.2l-1,0.5v0.6l0.5,0.3l1.4-0.8l1.1,0.6
		v1.6L310.6-7l-1.4-0.8l-0.5,0.3V-7l0.9,0.5l-2.1,1.2l-0.9-0.5l-0.5,0.3V-5l0.4,0.2l-2.5,1.4v0.6l0.5,0.3l2.5-1.4l0,0.5l0.5,0.3
		l0.5-0.3l0-1.1l2.1-1.2l0,1.1l0.5,0.3l0.5-0.3l0-1.7l1.1-0.6l1.4,0.8l0,1.2L312.2-4l0,0.6l0.5,0.3l0.9-0.5v2.4l-0.9,0.5v0.6
		l0.5,0.3l0.4-0.2v2.9l0.5,0.3l0.5-0.3v-2.9l0.4,0.3l0.5-0.3v-0.6l-0.9-0.5v-2.4l0.9,0.6l0.5-0.3V-4l-1.4-0.8V-6l1.4-0.8l1.1,0.6
		l0,1.6l0.5,0.3l0.5-0.3l0-1.1l2.1,1.2l0,1.1l0.5,0.3l0.5-0.3l0-0.5l2.5,1.4l0.5-0.3v-0.6l-2.5-1.4L322-5v-0.6l-0.5-0.3l-0.9,0.5
		l-2.1-1.2l1-0.5v-0.6l-0.5-0.3L317.5-7l-1.1-0.6v-1.6l1.1-0.6l1.4,0.8l0.5-0.3v-0.6l-0.9-0.5l2.1-1.2l0.9,0.5l0.5-0.3l0-0.6
		l-0.4-0.2l2.5-1.4V-14.2z"/>
	<path class="st2" d="M246-24.8c-1,8.2-1.7,8.9-9.9,9.9c8.2,1,8.9,1.7,9.9,9.9c1-8.2,1.7-8.9,9.9-9.9C247.8-15.8,247-16.6,246-24.8z
		 M246-11c-0.4-3.2-0.7-3.5-3.9-3.9c3.2-0.4,3.5-0.7,3.9-3.9c0.4,3.2,0.7,3.5,3.9,3.9C246.7-14.5,246.4-14.2,246-11z"/>
	<path class="st2" d="M142.5,72.6c-0.7,6.2-1.3,6.8-7.5,7.5c6.2,0.7,6.8,1.3,7.5,7.5c0.7-6.2,1.3-6.8,7.5-7.5
		C143.9,79.4,143.3,78.8,142.5,72.6z M142.5,83.1c-0.3-2.4-0.5-2.7-3-3c2.4-0.3,2.7-0.5,3-3c0.3,2.4,0.5,2.7,3,3
		C143.1,80.4,142.8,80.6,142.5,83.1z"/>
	<path class="st2" d="M330,71.6c-0.7,6.2-1.3,6.8-7.5,7.5c6.2,0.7,6.8,1.3,7.5,7.5c0.7-6.2,1.3-6.8,7.5-7.5
		C331.4,78.4,330.8,77.8,330,71.6z M330,82.1c-0.3-2.4-0.5-2.7-3-3c2.4-0.3,2.7-0.5,3-3c0.3,2.4,0.5,2.7,3,3
		C330.6,79.4,330.3,79.6,330,82.1z"/>
	<path class="st2" d="M425.3-9.8c-1,8.2-1.7,8.9-9.9,9.9c8.2,1,8.9,1.7,9.9,9.9c1-8.2,1.7-8.9,9.9-9.9C427-0.8,426.3-1.6,425.3-9.8z
		 M425.3,4c-0.4-3.2-0.7-3.5-3.9-3.9c3.2-0.4,3.5-0.7,3.9-3.9c0.4,3.2,0.7,3.5,3.9,3.9C426,0.5,425.7,0.8,425.3,4z"/>
	<path class="st2" d="M-54.9,70.2c-1,8.2-1.7,8.9-9.9,9.9c8.2,1,8.9,1.7,9.9,9.9c1-8.2,1.7-8.9,9.9-9.9
		C-53.1,79.2-53.9,78.4-54.9,70.2z M-54.9,84c-0.4-3.2-0.7-3.5-3.9-3.9c3.2-0.4,3.5-0.7,3.9-3.9c0.4,3.2,0.7,3.5,3.9,3.9
		C-54.2,80.5-54.5,80.8-54.9,84z"/>
	<path class="st2" d="M1.1-20.4c-0.7,6.2-1.3,6.8-7.5,7.5c6.2,0.7,6.8,1.3,7.5,7.5c0.7-6.2,1.3-6.8,7.5-7.5
		C2.4-13.6,1.8-14.2,1.1-20.4z M1.1-9.9c-0.3-2.4-0.5-2.7-3-3c2.4-0.3,2.7-0.5,3-3c0.3,2.4,0.5,2.7,3,3C1.6-12.6,1.4-12.4,1.1-9.9z"
		/>
	<path class="st3" d="M375.3-25.2c0.3,0,0.5,0.5,0.5,0.7c0,0.3-0.1,0.6-0.2,0.8c-0.2,0.2-0.4,0.4-0.7,0.5c-0.2,0.1-0.8,0.1-0.9-0.2
		c0.1,0.3-0.3,0.6-0.5,0.7c-0.3,0.1-0.6,0.1-0.8,0.1c-0.3-0.1-0.5-0.2-0.7-0.5c-0.1-0.2-0.3-0.7-0.1-0.9c-0.2,0.2-0.7-0.1-0.8-0.3
		c-0.2-0.2-0.3-0.5-0.3-0.8c0-0.3,0.1-0.6,0.3-0.8c0.2-0.2,0.6-0.5,0.9-0.3c-0.2-0.2-0.1-0.6,0-0.8c0.1-0.2,0.4-0.4,0.6-0.5
		c0.3-0.1,0.6-0.1,0.8,0c0.2,0.1,0.7,0.4,0.6,0.7c0.1-0.3,0.6-0.3,0.8-0.2c0.3,0.1,0.5,0.2,0.7,0.4c0.2,0.2,0.3,0.5,0.3,0.8
		C375.8-25.7,375.7-25.2,375.3-25.2z"/>
	<path class="st3" d="M402.8,85.1c0.4,0,0.7,0.7,0.7,1c0,0.4-0.1,0.8-0.3,1.2c-0.2,0.3-0.6,0.6-1,0.7c-0.3,0.1-1.2,0.1-1.3-0.3
		c0.1,0.4-0.4,0.8-0.7,1c-0.4,0.2-0.8,0.2-1.2,0.1c-0.4-0.1-0.8-0.4-1-0.7c-0.2-0.3-0.5-1-0.1-1.3c-0.4,0.2-1-0.2-1.2-0.4
		c-0.3-0.3-0.4-0.7-0.4-1.1c0-0.4,0.1-0.8,0.4-1.2c0.2-0.3,0.9-0.8,1.3-0.5c-0.3-0.3-0.1-0.9,0-1.2c0.2-0.4,0.6-0.6,0.9-0.8
		c0.4-0.1,0.8-0.2,1.2,0c0.3,0.1,1,0.6,0.9,1c0.1-0.4,0.9-0.4,1.2-0.4c0.4,0.1,0.8,0.3,1,0.6c0.3,0.3,0.4,0.7,0.4,1.1
		C403.5,84.4,403.3,85.1,402.8,85.1z"/>
	<path class="st3" d="M287.1,92.8c0.4,0,0.7,0.7,0.7,1c0,0.4-0.1,0.8-0.3,1.2c-0.2,0.3-0.6,0.6-1,0.7c-0.3,0.1-1.2,0.1-1.3-0.3
		c0.1,0.4-0.4,0.8-0.7,1c-0.4,0.2-0.8,0.2-1.2,0.1c-0.4-0.1-0.8-0.4-1-0.7c-0.2-0.3-0.5-1-0.1-1.3c-0.4,0.2-1-0.2-1.2-0.4
		c-0.3-0.3-0.4-0.7-0.4-1.1c0-0.4,0.1-0.8,0.4-1.2c0.2-0.3,0.9-0.8,1.3-0.5c-0.3-0.3-0.1-0.9,0-1.2c0.2-0.4,0.6-0.6,0.9-0.8
		c0.4-0.1,0.8-0.2,1.2,0c0.3,0.1,1,0.6,0.9,1c0.1-0.4,0.9-0.4,1.2-0.4c0.4,0.1,0.8,0.3,1,0.6c0.3,0.3,0.4,0.7,0.4,1.1
		C287.8,92,287.6,92.7,287.1,92.8z"/>
	<path class="st3" d="M82.9,79.1c0.3,0,0.5,0.5,0.5,0.7c0,0.3-0.1,0.6-0.2,0.8c-0.2,0.2-0.4,0.4-0.7,0.5c-0.2,0.1-0.8,0.1-0.9-0.2
		c0.1,0.3-0.3,0.6-0.5,0.7c-0.3,0.1-0.6,0.1-0.8,0.1c-0.3-0.1-0.5-0.2-0.7-0.5c-0.1-0.2-0.3-0.7-0.1-0.9c-0.2,0.2-0.7-0.1-0.8-0.3
		c-0.2-0.2-0.3-0.5-0.3-0.8c0-0.3,0.1-0.6,0.3-0.8c0.2-0.2,0.6-0.5,0.9-0.3c-0.2-0.2-0.1-0.6,0-0.8c0.1-0.2,0.4-0.4,0.6-0.5
		c0.3-0.1,0.6-0.1,0.8,0c0.2,0.1,0.7,0.4,0.6,0.7c0.1-0.3,0.6-0.3,0.8-0.2c0.3,0.1,0.5,0.2,0.7,0.4c0.2,0.2,0.3,0.5,0.3,0.8
		C83.3,78.6,83.2,79.1,82.9,79.1z"/>
	<path class="st3" d="M-16.2,101.4c0.4,0,0.7,0.7,0.7,1c0,0.4-0.1,0.8-0.3,1.2c-0.2,0.3-0.6,0.6-1,0.7c-0.3,0.1-1.2,0.1-1.3-0.3
		c0.1,0.4-0.4,0.8-0.7,1c-0.4,0.2-0.8,0.2-1.2,0.1c-0.4-0.1-0.8-0.4-1-0.7c-0.2-0.3-0.5-1-0.1-1.3c-0.4,0.2-1-0.2-1.2-0.4
		c-0.3-0.3-0.4-0.7-0.4-1.1c0-0.4,0.1-0.8,0.4-1.2c0.2-0.3,0.9-0.8,1.3-0.5c-0.3-0.3-0.1-0.9,0-1.2c0.2-0.4,0.6-0.6,0.9-0.8
		c0.4-0.1,0.8-0.2,1.2,0c0.3,0.1,1,0.6,0.9,1c0.1-0.4,0.9-0.4,1.2-0.4c0.4,0.1,0.8,0.3,1,0.6c0.3,0.3,0.4,0.7,0.4,1.1
		C-15.5,100.6-15.7,101.3-16.2,101.4z"/>
	<path class="st3" d="M-49.2-15.6c0.4,0,0.7,0.7,0.7,1c0,0.4-0.1,0.8-0.3,1.2c-0.2,0.3-0.6,0.6-1,0.7c-0.3,0.1-1.2,0.1-1.3-0.3
		c0.1,0.4-0.4,0.8-0.7,1c-0.4,0.2-0.8,0.2-1.2,0.1c-0.4-0.1-0.8-0.4-1-0.7c-0.2-0.3-0.5-1-0.1-1.3c-0.4,0.2-1-0.2-1.2-0.4
		c-0.3-0.3-0.4-0.7-0.4-1.1c0-0.4,0.1-0.8,0.4-1.1c0.2-0.3,0.9-0.8,1.3-0.5c-0.3-0.3-0.1-0.9,0-1.2c0.2-0.4,0.6-0.6,0.9-0.8
		c0.4-0.1,0.8-0.2,1.2,0c0.3,0.1,1,0.6,0.9,1c0.1-0.4,0.9-0.4,1.2-0.4c0.4,0.1,0.8,0.3,1,0.6c0.3,0.3,0.4,0.7,0.4,1.1
		C-48.5-16.4-48.7-15.7-49.2-15.6z"/>
	<path class="st3" d="M46.5-32.1c0.3,0,0.5,0.5,0.5,0.7c0,0.3-0.1,0.6-0.2,0.8c-0.2,0.2-0.4,0.4-0.7,0.5c-0.2,0.1-0.8,0.1-0.9-0.2
		c0.1,0.3-0.3,0.6-0.5,0.7c-0.3,0.1-0.6,0.1-0.8,0.1c-0.3-0.1-0.5-0.2-0.7-0.5c-0.1-0.2-0.3-0.7-0.1-0.9c-0.2,0.2-0.7-0.1-0.8-0.3
		c-0.2-0.2-0.3-0.5-0.3-0.8c0-0.3,0.1-0.6,0.3-0.8c0.2-0.2,0.6-0.5,0.9-0.3c-0.2-0.2-0.1-0.6,0-0.8c0.1-0.2,0.4-0.4,0.6-0.5
		c0.3-0.1,0.6-0.1,0.8,0c0.2,0.1,0.7,0.4,0.6,0.7c0.1-0.3,0.6-0.3,0.8-0.2c0.3,0.1,0.5,0.2,0.7,0.4c0.2,0.2,0.3,0.5,0.3,0.8
		C47-32.7,46.8-32.2,46.5-32.1z"/>
	<path class="st3" d="M169.8-11.6c0.4,0,0.7,0.7,0.7,1c0,0.4-0.1,0.8-0.3,1.2c-0.2,0.3-0.6,0.6-1,0.7c-0.3,0.1-1.2,0.1-1.3-0.3
		c0.1,0.4-0.4,0.8-0.7,1c-0.4,0.2-0.8,0.2-1.2,0.1c-0.4-0.1-0.8-0.4-1-0.7c-0.2-0.3-0.5-1-0.1-1.3c-0.4,0.2-1-0.2-1.2-0.4
		c-0.3-0.3-0.4-0.7-0.4-1.1c0-0.4,0.1-0.8,0.4-1.1c0.2-0.3,0.9-0.8,1.3-0.5c-0.3-0.3-0.1-0.9,0-1.2c0.2-0.4,0.6-0.6,0.9-0.8
		c0.4-0.1,0.8-0.2,1.2,0c0.3,0.1,1,0.6,0.9,1c0.1-0.4,0.9-0.4,1.2-0.4c0.4,0.1,0.8,0.3,1,0.6c0.3,0.3,0.4,0.7,0.4,1.1
		C170.5-12.4,170.3-11.7,169.8-11.6z"/>
</g>
<g class="st1">
	<defs>
		<path id="SVGID_1_" d="M60.5,18.3c-7.8-1.4-15.3,3.2-18.7,10.8c-6.7-4.9-15.6-5.1-21.6,0c-7.3,6.2-7.7,17.9-0.9,26.1
			C28.3,66.1,52,67.5,52,67.5c0,0,19.8-13.1,22.2-27.1C76,29.9,69.9,20,60.5,18.3z"/>
	</defs>
	<clipPath id="SVGID_2_" class="st4">
		<use xlink:href="#SVGID_1_"  style="overflow:visible;"/>
	</clipPath>
	<g class="st5">
		
			<rect x="42.9" y="8.6" transform="matrix(0.9659 -0.2588 0.2588 0.9659 -10.6457 13.6734)" class="st6" width="7.4" height="77.4"/>
		<path class="st7" d="M39.8,9.6l19.8,73.8L53.4,85L33.7,11.2L39.8,9.6 M40.5,8.3l-1,0.3l-6.1,1.6l-1,0.3l0.3,1l19.8,73.8l0.3,1
			l1-0.3l6.1-1.6l1-0.3l-0.3-1L40.8,9.3L40.5,8.3L40.5,8.3z"/>
	</g>
	<g class="st5">
		<rect x="6.1" y="36.8" transform="matrix(0.9659 -0.2588 0.2588 0.9659 -8.9403 12.967)" class="st6" width="77.4" height="7.4"/>
		<path class="st7" d="M80.8,27.5l1.6,6.1L8.7,53.4l-1.6-6.1L80.8,27.5 M81.5,26.3l-1,0.3L6.8,46.3l-1,0.3l0.3,1l1.6,6.1l0.3,1
			l1-0.3l73.8-19.8l1-0.3l-0.3-1l-1.6-6.1L81.5,26.3L81.5,26.3z"/>
	</g>
</g>
<g class="st1">
	<path class="st8" d="M32.8,61.8l-5.3,4.6l0.2-1.3c0-0.2,0.7-5,3.5-10.1c1-1.9,2.7-4.2,3.9-5.7c-0.6,0.3-1.3,0.7-2,1.1
		c-1.5,0.8-3.5,2.3-3.6,2.3c0,0-0.4,0.3-1,0.3c-0.4,0-1.1-0.2-1.8-1c-0.7-0.8-1.3-2.5-1.9-4c-0.9-2.3-3.7-6-3.8-6.1l0,0l0,0
		c-0.1-0.2-0.9-2-0.7-3.2c0.2-1.5,1.6-2.5,1.7-2.6c0.1-0.1,2.9-1.8,7.8-1.8c0.2,0,0.5,0,0.7,0c3.3,0.1,8.1,1.9,9.5,2.4
		c0.5-0.6,1.8-2,3.5-2.4c0.3-0.1,0.7-0.1,1.1-0.1c1.2,0,2.2,0.4,2.7,0.6c0.9-1.3,4-5.6,8.2-7.7c2-1,4.6-1.6,6.5-1.6
		c1.2,0,2.1,0.3,2.5,0.8c1.4,1.7,1.4,2.7,1.5,4.2c0,0.2,0,0.5,0,0.7c0.1,1.2-0.2,2.5-0.4,3.6c-0.2,0.8-0.3,1.6-0.3,2.2
		c0,0.6,0.3,1.3,0.6,1.9c0.5,1.2,1.1,2.6-0.2,3.7c-1.1,0.9-5.5,1.1-7.4,1.1c0.3,0.2,1.6,0.8,1.6,0.8c2,1,4.2,2.1,6.3,3.5
		c3.5,2.4,5.8,5.5,5.8,5.6l0.9,1.2l-1.4-0.4c0,0-2.9-0.9-4.7-1.2c-0.1,0-0.2,0-0.2,0c-0.2,0-0.4,0-0.5,0.1l-0.3,6.1L65,58.3
		c0,0-3.9-4.5-9.5-8.5c-2.3-1.6-5-3.5-8.4-5.3c0,0,0,0-0.1,0c-0.7,0-1.7,0.2-1.9,0.4c-1.3,1.7-3.4,5.3-4.5,8
		c-2.4,5.7-4.6,13-4.6,13.1l-0.3,1.1L32.8,61.8z"/>
	<path class="st9" d="M62,25.8c1,0,1.8,0.2,2.1,0.6c1.5,1.8,1.3,2.7,1.4,4.6c0.1,2-0.8,4.2-0.8,5.8c0,1.8,2.1,3.9,0.6,5.2
		c-1,0.9-6.4,1-8,1c0,0,0,0,0,0c-0.9,0-2-0.3-2-0.3s1.6,0.8,3.7,1.8c2.1,1,4.6,2.2,6.9,3.8c3.5,2.4,5.7,5.5,5.7,5.5
		s-2.9-0.9-4.7-1.2c-0.1,0-0.2,0-0.3,0c-0.5,0-1,0.2-1,0.2L65.4,58c0,0-3.9-4.5-9.6-8.6c-2.1-1.5-5-3.5-8.5-5.4c0,0-0.1,0-0.2,0
		c-0.6,0-1.9,0.1-2.3,0.5c-1.3,1.7-3.4,5.3-4.6,8.1c-2.5,5.8-4.6,13.1-4.6,13.1L33,61l-4.7,4.1c0,0,0.7-4.8,3.4-9.9
		c1.7-3.2,5.3-7.5,5.3-7.5s-1.5,0.8-4.1,2.2c-1.5,0.9-3.6,2.3-3.6,2.3s-0.3,0.2-0.7,0.2c-0.4,0-0.9-0.2-1.4-0.8
		c-0.6-0.7-1.3-2.4-1.9-3.9c-0.9-2.4-3.8-6.2-3.8-6.2s-0.8-1.8-0.7-2.9c0.2-1.3,1.5-2.2,1.5-2.2s2.7-1.8,7.5-1.8c0.2,0,0.4,0,0.7,0
		c3.7,0.1,9.7,2.5,9.7,2.5s1.4-2.1,3.4-2.5c0.3-0.1,0.7-0.1,1-0.1c1.6,0,2.9,0.7,2.9,0.7s3.4-5.4,8.3-7.9
		C57.6,26.4,60.1,25.8,62,25.8 M62,24.8v1V24.8c-2,0-4.7,0.7-6.8,1.7c-4.1,2-7.1,5.9-8.2,7.5c-0.6-0.2-1.5-0.5-2.6-0.5
		c-0.4,0-0.8,0-1.2,0.1c-1.6,0.3-2.9,1.5-3.5,2.3c-1.7-0.6-6.2-2.2-9.3-2.3c-0.2,0-0.5,0-0.7,0c-5,0-7.9,1.8-8,1.9
		c-0.2,0.1-1.7,1.2-1.9,2.9c-0.2,1.3,0.6,3.1,0.8,3.5l0,0.1l0.1,0.1c0,0,2.8,3.7,3.7,6c0.8,2,1.4,3.4,2,4.2c0.8,1,1.6,1.2,2.2,1.2
		c0.7,0,1.2-0.3,1.3-0.4c0,0,0,0,0,0c0,0,2-1.4,3.5-2.2c-0.9,1.3-1.9,2.7-2.6,4c-2.8,5.2-3.5,10-3.6,10.2l-0.4,2.6l2-1.7l3.8-3.3
		l2,3.7l1.2,2.1l0.7-2.3c0-0.1,2.2-7.3,4.6-13c1.1-2.6,3.1-6.1,4.4-7.8c0.2-0.1,1-0.2,1.5-0.2c3.2,1.7,6,3.6,8.2,5.2
		c5.5,4,9.3,8.4,9.4,8.4l1.6,1.9l0.1-2.5l0.2-4.5c0,0,0,0,0,0c0,0,0.1,0,0.1,0c1.8,0.3,4.6,1.1,4.6,1.2l2.8,0.9l-1.7-2.4
		c-0.1-0.1-2.4-3.3-6-5.8c-2.1-1.4-4.3-2.5-6.3-3.5c2.2-0.1,4.9-0.4,5.8-1.2c1.6-1.3,0.8-3.1,0.3-4.3c-0.3-0.6-0.5-1.2-0.5-1.7
		c0-0.6,0.2-1.3,0.3-2.1c0.2-1.1,0.5-2.4,0.4-3.7c0-0.2,0-0.5,0-0.7c-0.1-1.5-0.1-2.6-1.6-4.5C64.3,25.1,63.4,24.8,62,24.8L62,24.8z
		"/>
</g>
</svg>
