<svg id="a1269b3a-ec60-4bfd-8c3a-63d7896aba8d" data-name="Layer 1" xmlns="http://www.w3.org/2000/svg" viewBox="0 0 100 100"><defs><style>.f2111410-163d-4ac8-bcc5-74a074614411{fill:#339af0;}.a4304f84-630d-4673-a5de-451a2a906e0a{fill:#1b86ce;}</style></defs><title>satisfaction-guaranteed</title><path class="f2111410-163d-4ac8-bcc5-74a074614411" d="M91.9,25.8,79.7,20.4,74.2,8.1,60.9,9.5,50,1.6,39.1,9.5,25.8,8.1,20.4,20.3,8.1,25.8,9.5,39.1,1.6,50,9.5,60.9,8.1,74.2l12.2,5.4,5.5,12.3,13.3-1.4L50,98.4l10.9-7.9,13.3,1.4,5.4-12.3,12.3-5.4L90.5,60.9,98.4,50,90.5,39.1ZM40.3,69.4,26.6,55.7l4.6-4.6,9.1,9.1L67.7,32.9l4.6,4.5Z"/><path class="a4304f84-630d-4673-a5de-451a2a906e0a" d="M99.7,49.1,92.2,38.7,93.5,26a1.7,1.7,0,0,0-.9-1.7L80.9,19.1,75.7,7.4A1.7,1.7,0,0,0,74,6.5L61.3,7.8,50.9.3a1.5,1.5,0,0,0-1.8,0L38.7,7.8,26,6.5a1.7,1.7,0,0,0-1.7.9L19.1,19.1,7.4,24.3A1.7,1.7,0,0,0,6.5,26L7.8,38.7.3,49.1a1.5,1.5,0,0,0,0,1.8L7.8,61.3,6.5,74a1.7,1.7,0,0,0,.9,1.7l11.7,5.2,5.2,11.7a1.7,1.7,0,0,0,1.7.9l12.7-1.3,10.4,7.5a1.5,1.5,0,0,0,1.8,0l10.4-7.5L74,93.5a1.7,1.7,0,0,0,1.7-.9l5.2-11.7,11.7-5.2a1.7,1.7,0,0,0,.9-1.7L92.2,61.3l7.5-10.4A1.5,1.5,0,0,0,99.7,49.1ZM89.2,59.9a2,2,0,0,0-.3,1.1l1.3,12.2L79,78.2a1.1,1.1,0,0,0-.8.8l-5,11.2L61,88.9a2,2,0,0,0-1.1.3L50,96.4l-9.9-7.2a1.7,1.7,0,0,0-1-.3H39L26.8,90.2,21.8,79a1.1,1.1,0,0,0-.8-.8l-11.2-5L11.1,61a2,2,0,0,0-.3-1.1L3.6,50l7.2-9.9a2,2,0,0,0,.3-1.1L9.8,26.8l11.2-5a1.1,1.1,0,0,0,.8-.8l5-11.2L39,11.1a2,2,0,0,0,1.1-.3L50,3.6l9.9,7.2a2,2,0,0,0,1.1.3L73.2,9.8l5,11.2a1.1,1.1,0,0,0,.8.8l11.2,5L88.9,39a2,2,0,0,0,.3,1.1L96.4,50Z"/></svg>