<?xml version="1.0" encoding="utf-8"?>
<!-- Generator: Adobe Illustrator 22.1.0, SVG Export Plug-In . SVG Version: 6.00 Build 0)  -->
<svg version="1.1" id="Layer_1" xmlns="http://www.w3.org/2000/svg" xmlns:xlink="http://www.w3.org/1999/xlink" x="0px" y="0px"
	 viewBox="0 0 200 108" style="enable-background:new 0 0 200 108;" xml:space="preserve">
<style type="text/css">
	.st0{fill:#FFFFFF;}
	.st1{fill:#C7C8CA;}
	.st2{fill:#A7A9AC;}
	.st3{fill:#FFC20E;}
	.st4{fill:#A30046;}
</style>
<path class="st0" d="M36.6,16.6c-17.2,0-31.1,14-31.1,31.1c0,17.2,14,31.1,31.1,31.1h129.7c17.2,0,31.1-14,31.1-31.1
	c0-17.2-14-31.1-31.1-31.1H36.6z"/>
<path class="st1" d="M166.2,81.5H36.6C18,81.5,2.8,66.3,2.8,47.7S18,13.9,36.6,13.9h129.7c18.6,0,33.8,15.1,33.8,33.8
	S184.9,81.5,166.2,81.5 M36.6,16.6c-17.2,0-31.1,14-31.1,31.1c0,17.2,14,31.1,31.1,31.1h129.7c17.2,0,31.1-14,31.1-31.1
	c0-17.2-14-31.1-31.1-31.1H36.6z"/>
<path d="M150.7,28.8c-5,0-9.1,4.1-9.1,9.1c0,5,4.1,9.1,9.1,9.1c5,0,9.1-4.1,9.1-9.1C159.8,32.9,155.7,28.8,150.7,28.8 M150.7,42.6
	c-2.6,0-4.7-2.1-4.7-4.7c0-2.6,2.1-4.7,4.7-4.7s4.7,2.1,4.7,4.7C155.4,40.5,153.3,42.6,150.7,42.6"/>
<path d="M108.9,28.8c-5,0-9.1,4.1-9.1,9.1c0,5,4.1,9.1,9.1,9.1c5,0,9.1-4.1,9.1-9.1C118,32.9,113.9,28.8,108.9,28.8 M108.9,42.6
	c-2.6,0-4.7-2.1-4.7-4.7c0-2.6,2.1-4.7,4.7-4.7c2.6,0,4.7,2.1,4.7,4.7C113.6,40.5,111.5,42.6,108.9,42.6"/>
<path d="M141,42.8c-0.6,0.2-1.5,0.3-1.8,0.3c-1.6,0-1.9-0.5-1.9-2v-8.4h3.7v-3.5h-3.7v-5h-4.2l-0.9,5h-2.9v0h-0.2
	c-2.4,0-4.2,1.5-5.3,3.8l-1.5-3.8h-3v17.5h5.1v-7.6c0-3.8,2.3-6.3,5-6.4h2.8v8.7c0,4.1,2.1,5.6,5.5,5.6c1.8,0,3.1-0.4,3.9-0.6
	L141,42.8z"/>
<polyline points="166,34.7 166,46.7 161,46.7 161,29.2 164.1,29.2 165.1,31.9 "/>
<path d="M165.1,31.9c1.5-1.8,3.6-3.1,6-3.1c4.2,0,5.9,3.3,5.9,6.4v11.5h-5.1V35.3c0-1.5-1.2-2.3-2.6-2.3c-1.4,0-2.4,0.8-3.2,1.7"/>
<polygon points="79.7,22.9 85.4,22.9 93.3,37.9 93.3,22.9 98.1,22.9 98.1,46.7 92.9,46.7 84.5,30.2 84.5,46.7 79.7,46.7 "/>
<polygon class="st2" points="192.1,13.9 192.1,14.8 190.9,14.8 190.9,19 189.9,19 189.9,14.8 188.7,14.8 188.7,13.9 "/>
<polygon class="st2" points="192.8,19 192.8,13.9 194.2,13.9 195,17.2 195.9,13.9 197.3,13.9 197.3,19 196.5,19 196.5,15 196.4,15 
	195.4,19 194.7,19 193.7,15 193.7,15 193.7,19 "/>
<path class="st2" d="M78.3,67.8l1.2-1.8c1,0.7,2.4,1.4,4.2,1.4c1.7,0,2.8-0.8,2.8-2.1c0-1.6-1.3-2-3.5-2.7c-2-0.7-3.9-1.7-3.9-4.5
	c0-2.6,2.1-4,4.8-4c1.8,0,3.2,0.4,4.3,1l-1,2c-0.9-0.5-2-0.8-3.3-0.8c-1.5,0-2.5,0.6-2.5,1.8c0,1.4,1.1,1.8,3.1,2.5
	c2.1,0.7,4.4,1.7,4.4,4.8c0,2.6-1.9,4.4-5.2,4.4C81.2,69.5,79.4,68.7,78.3,67.8"/>
<polygon class="st2" points="93.4,54.2 102.4,54.2 102.4,56.3 96,56.3 96,60.4 101.1,60.4 101.1,62.5 96,62.5 96,67.2 102.8,67.2 
	102.8,69.3 93.4,69.3 "/>
<path class="st2" d="M106.5,61.8c0-4.4,2.1-7.8,6.3-7.8c1.9,0,3.4,0.6,4.4,1.8l-1.5,1.7c-0.9-0.9-1.7-1.3-2.9-1.3
	c-2.5,0-3.6,2-3.6,5.8c0,3.5,1.2,5.3,3.6,5.3c1.4,0,2.3-0.7,3.1-1.6l1.5,1.7c-1.1,1.3-2.5,2.2-4.7,2.2
	C108.5,69.5,106.5,66.2,106.5,61.8"/>
<path class="st2" d="M121.7,63.5v-9.3h2.6v9.8c0,2.1,0.5,3.4,2.7,3.4c2.2,0,2.7-1.4,2.7-3.4v-9.8h2.6v9.3c0,3.8-1.4,6-5.3,6
	C123.2,69.5,121.7,67.3,121.7,63.5"/>
<path class="st2" d="M148.1,69.3h-2.8l-2.9-6.4H140v6.4h-2.6V54.2h4.9c3.1,0,5.4,1.1,5.4,4.4c0,2.3-1.4,3.4-2.9,3.9L148.1,69.3z
	 M142.3,60.9c1.9,0,2.9-0.6,2.9-2.4c0-1.7-1-2.3-2.8-2.3H140v4.7H142.3z"/>
<polygon class="st2" points="152.5,54.2 161.5,54.2 161.5,56.3 155.1,56.3 155.1,60.4 160.2,60.4 160.2,62.5 155.1,62.5 155.1,67.2 
	161.9,67.2 161.9,69.3 152.5,69.3 "/>
<path class="st2" d="M166.2,54.2h3.8c4.9,0,7.3,2.7,7.3,7.5c0,4.9-2.4,7.6-7.2,7.6h-3.9V54.2z M169.9,67.2c3.5,0,4.7-1.6,4.7-5.5
	c0-3.4-0.9-5.4-4.4-5.4h-1.4v11H169.9z"/>
<path class="st3" d="M36.4,84.1C16.3,84.1,0,67.8,0,47.7c0-20.1,16.3-36.4,36.4-36.4c20.1,0,36.4,16.3,36.4,36.4
	C72.8,67.8,56.5,84.1,36.4,84.1 M36.4,22.8c-6.6,0-12.9,2.6-17.6,7.3c-4.7,4.7-7.3,11-7.3,17.6c0,6.6,2.6,12.9,7.3,17.6
	c4.7,4.7,11,7.3,17.6,7.3c6.6,0,12.9-2.6,17.6-7.3c4.7-4.7,7.3-11,7.3-17.6c0-6.6-2.6-12.9-7.3-17.6C49.3,25.4,43.1,22.8,36.4,22.8"
	/>
<rect x="76.1" y="5.7" class="st3" width="2.8" height="2.8"/>
<rect x="76.1" class="st3" width="2.8" height="2.8"/>
<rect x="68.1" y="8.5" class="st3" width="2.7" height="2.8"/>
<rect x="62.9" y="13.9" width="2.7" height="2.7"/>
<rect x="70.8" y="11.3" width="3" height="2.7"/>
<rect x="60.2" y="11.4" width="2.7" height="2.5"/>
<rect x="68.1" y="13.9" width="2.7" height="2.7"/>
<rect x="73.3" y="2.8" width="2.8" height="2.8"/>
<rect x="68.1" y="5.7" width="5.2" height="2.8"/>
<rect x="65.5" y="8.5" width="2.6" height="5.4"/>
<path d="M65.5,16.6v2.7h-2.7v-2.7h-4.4v1.9H56v2.4h2.7v2.6H56v-2.6h-2.8V25h-2.7v2.6h-1.8v2.7h-1.9c-2.2,3.3-7.7,13.4-9.3,17.5
	c-6-8.3-10.6-11.6-14.3-12.8c-2-0.6-4.3,1.6-1.1,4.9c7.5,8.3,9.9,15.1,12.2,20.6c1.2,2.9,6.6,3.3,7.7,0.4c2.3-6.2,5.7-13.2,9.6-18.9
	v-3h2.1v-2.7H56v-3.1h2.7v-3H56v-2.7h2.7v2.7h2.6l0-2.7h2.1v-3.2h2.4v-2.2h2.3v-5.6H65.5z"/>
<path class="st2" d="M14.1,96.6h2v1.5c0.6-0.9,1.5-1.6,3-1.6c2.1,0,4.1,1.6,4.1,4.5v0c0,2.9-2,4.5-4.1,4.5c-1.4,0-2.3-0.7-3-1.5v4
	h-2V96.6z M21.1,101L21.1,101c0-1.7-1.1-2.8-2.5-2.8c-1.4,0-2.5,1.1-2.5,2.8v0c0,1.7,1.2,2.8,2.5,2.8C20,103.8,21.1,102.7,21.1,101"
	/>
<path class="st2" d="M24.8,101L24.8,101c0-2.5,2-4.6,4.6-4.6s4.6,2,4.6,4.5v0c0,2.5-2,4.5-4.7,4.5C26.7,105.5,24.8,103.5,24.8,101
	 M32.1,101L32.1,101c0-1.6-1.1-2.8-2.7-2.8c-1.6,0-2.6,1.3-2.6,2.8v0c0,1.5,1.1,2.8,2.7,2.8C31,103.8,32.1,102.5,32.1,101"/>
<polygon class="st2" points="35,96.6 37.1,96.6 38.8,102.6 40.7,96.6 42.4,96.6 44.4,102.6 46.2,96.6 48.1,96.6 45.3,105.4 
	43.5,105.4 41.6,99.4 39.6,105.4 37.8,105.4 "/>
<path class="st2" d="M49.2,101L49.2,101c0-2.5,1.8-4.6,4.3-4.6c2.8,0,4.2,2.2,4.2,4.7c0,0.2,0,0.4,0,0.6h-6.4
	c0.2,1.4,1.2,2.2,2.5,2.2c1,0,1.7-0.4,2.4-1l1.2,1c-0.8,1-2,1.6-3.6,1.6C51.1,105.5,49.2,103.7,49.2,101 M55.6,100.3
	c-0.1-1.3-0.9-2.3-2.2-2.3c-1.2,0-2.1,0.9-2.3,2.3H55.6z"/>
<path class="st2" d="M59.7,96.6h2v2c0.5-1.3,1.5-2.2,3.1-2.1v2.1h-0.1c-1.7,0-3,1.1-3,3.4v3.3h-2V96.6z"/>
<path class="st2" d="M65.9,101L65.9,101c0-2.5,1.8-4.6,4.3-4.6c2.8,0,4.2,2.2,4.2,4.7c0,0.2,0,0.4,0,0.6h-6.4
	c0.2,1.4,1.2,2.2,2.5,2.2c1,0,1.7-0.4,2.4-1l1.2,1c-0.8,1-2,1.6-3.6,1.6C67.8,105.5,65.9,103.7,65.9,101 M72.3,100.3
	c-0.1-1.3-0.9-2.3-2.2-2.3c-1.2,0-2.1,0.9-2.3,2.3H72.3z"/>
<path class="st2" d="M75.9,101L75.9,101c0-2.9,2-4.5,4-4.5c1.4,0,2.3,0.7,3,1.5v-4.7h2v12h-2v-1.5c-0.6,0.9-1.5,1.6-3,1.6
	C77.9,105.5,75.9,103.9,75.9,101 M83,101L83,101c0-1.7-1.2-2.8-2.5-2.8c-1.4,0-2.5,1.1-2.5,2.8v0c0,1.7,1.2,2.8,2.5,2.8
	C81.8,103.8,83,102.6,83,101"/>
<path class="st2" d="M94.4,104v1.4h-2v-12h2v4.8c0.6-0.9,1.5-1.6,3-1.6c2.1,0,4.1,1.6,4.1,4.5v0c0,2.9-2,4.5-4.1,4.5
	C95.9,105.5,95,104.8,94.4,104 M99.3,101L99.3,101c0-1.7-1.1-2.8-2.5-2.8c-1.4,0-2.5,1.1-2.5,2.8v0c0,1.7,1.2,2.8,2.5,2.8
	C98.2,103.8,99.3,102.7,99.3,101"/>
<path class="st2" d="M102.7,107.5l0.7-1.5c0.4,0.2,0.8,0.3,1.2,0.3c0.6,0,0.9-0.2,1.2-1l-3.6-8.7h2.1l2.5,6.5l2.3-6.5h2.1l-3.5,8.9
	c-0.7,1.8-1.5,2.4-2.9,2.4C103.9,108,103.3,107.8,102.7,107.5"/>
<polygon class="st4" points="117,93.8 119.2,93.8 122.7,102.6 126.2,93.8 128.4,93.8 123.6,105.4 121.8,105.4 "/>
<path class="st4" d="M128.8,101L128.8,101c0-2.5,1.8-4.6,4.3-4.6c2.8,0,4.2,2.2,4.2,4.7c0,0.2,0,0.4,0,0.6h-6.4
	c0.2,1.4,1.2,2.2,2.5,2.2c1,0,1.7-0.4,2.4-1l1.2,1c-0.8,1-2,1.6-3.6,1.6C130.7,105.5,128.8,103.7,128.8,101 M135.2,100.3
	c-0.1-1.3-0.9-2.3-2.2-2.3c-1.2,0-2.1,0.9-2.3,2.3H135.2z"/>
<path class="st4" d="M139.3,96.6h2v2c0.5-1.3,1.5-2.2,3.1-2.1v2.1h-0.1c-1.7,0-3,1.1-3,3.4v3.3h-2V96.6z"/>
<path class="st4" d="M146,93.4h2.1v1.9H146V93.4z M146.1,96.6h2v8.7h-2V96.6z"/>
<path class="st4" d="M150.1,103.6l1.2-1.5c1.1,1,2.2,1.5,3.6,1.5c1.3,0,2-0.6,2-1.4v0c0-0.8-0.5-1.3-2.6-1.8
	c-2.5-0.6-3.8-1.3-3.8-3.4v0c0-2,1.6-3.3,3.9-3.3c1.7,0,3,0.5,4.2,1.5l-1.1,1.5c-1-0.8-2.1-1.2-3.1-1.2c-1.2,0-1.9,0.6-1.9,1.4v0
	c0,0.9,0.5,1.3,2.7,1.8c2.4,0.6,3.7,1.5,3.7,3.4v0c0,2.2-1.7,3.4-4.1,3.4C153.2,105.5,151.5,104.9,150.1,103.6"/>
<path class="st4" d="M161.3,93.4h2.1v1.9h-2.1V93.4z M161.4,96.6h2v8.7h-2V96.6z"/>
<path class="st4" d="M165.9,106.9l0.7-1.5c0.9,0.6,1.9,0.9,3.1,0.9c1.8,0,2.8-0.9,2.8-2.7V103c-0.7,0.9-1.6,1.6-3.1,1.6
	c-2,0-4-1.5-4-4.1v0c0-2.6,1.9-4.1,4-4.1c1.5,0,2.4,0.7,3,1.5v-1.3h2v6.9c0,1.5-0.4,2.6-1.1,3.3c-0.8,0.8-2,1.2-3.6,1.2
	C168.3,108,167,107.6,165.9,106.9 M172.5,100.5L172.5,100.5c0-1.5-1.2-2.4-2.6-2.4c-1.4,0-2.5,1-2.5,2.4v0c0,1.4,1.1,2.4,2.5,2.4
	C171.3,102.9,172.5,101.9,172.5,100.5"/>
<path class="st4" d="M177,96.6h2V98c0.6-0.8,1.4-1.5,2.7-1.5c2,0,3.1,1.3,3.1,3.3v5.5h-2v-4.9c0-1.4-0.7-2.1-1.9-2.1
	c-1.2,0-2,0.8-2,2.2v4.9h-2V96.6z"/>
</svg>
