<svg id="f76f1109-ef13-4f79-bb64-58fee491b162" data-name="Layer 1" xmlns="http://www.w3.org/2000/svg" viewBox="0 0 100 100"><defs><style>.e6342987-1fb4-4e1b-8293-3e28bbc8d631{fill:#609b1c;}.bbec3fad-edbb-4348-a368-47d5b8786786{fill:#444;}.b462409d-9c96-4921-998c-c35ceb5ee426{fill:#e6e6e6;}.e4977b44-5db1-497a-ab2b-67e515d2a0ea{fill:#fafafa;}</style></defs><title>secure</title><path class="e6342987-1fb4-4e1b-8293-3e28bbc8d631" d="M94.4,21.6,50,0,5.6,21.6C-1,88.4,50,100,50,100S101,88.4,94.4,21.6Z"/><path class="bbec3fad-edbb-4348-a368-47d5b8786786" d="M84.4,28,50,11.3,15.6,28C10.5,79.7,50,88.7,50,88.7S89.5,79.7,84.4,28Z"/><path class="b462409d-9c96-4921-998c-c35ceb5ee426" d="M80,30.8,50,16.2,20,30.8c-4.4,45.1,30,53,30,53S84.4,75.9,80,30.8Z"/><path class="e4977b44-5db1-497a-ab2b-67e515d2a0ea" d="M50,83.8s-34.4-7.9-30-53L50,16.2Z"/><path class="bbec3fad-edbb-4348-a368-47d5b8786786" d="M58.6,45.9H57.4c0-5.1-3.1-8-7.4-8s-7.5,2.9-7.5,8H41.4c-1.8,0-2.3.6-2.3,2.3V58.8c0,1.7.5,3.3,2.3,3.3H58.6a3.1,3.1,0,0,0,2.8-3.3V48.2C61.4,46.5,60.3,45.9,58.6,45.9Zm-6.7,13H48l.8-5.4a2.5,2.5,0,0,1-1.3-2.2A2.5,2.5,0,0,1,50,48.8a2.5,2.5,0,0,1,2.5,2.4,2.7,2.7,0,0,1-1.3,2.4Zm-7-13c0-4.7,2.5-5.7,5.1-5.7s5,1,5,5.7Z"/></svg>