<svg id="bb5e0415-1e5d-4a27-9a3c-5d71ff443fd8" data-name="Layer 1" xmlns="http://www.w3.org/2000/svg" viewBox="0 0 100 100"><defs><style>.a25474b5-96ea-48ad-bfea-a5914de9b3cc{fill:#ffcc01;}.e530c34d-a8e4-4af6-b8ae-72d3e209aec3{fill:#ffdb53;}.a2fdf72f-a823-4c6c-a6b1-474ae32d2534{fill:#fcbd11;}</style></defs><title>service</title><path class="a25474b5-96ea-48ad-bfea-a5914de9b3cc" d="M51.4,3.9,65.6,32.3a1.8,1.8,0,0,0,1.3.9l31.7,4.5a1.6,1.6,0,0,1,.9,2.7l-23,22.1a1.5,1.5,0,0,0-.4,1.4l5.4,31.2a1.6,1.6,0,0,1-2.3,1.7L50.7,82.1a1.2,1.2,0,0,0-1.4,0L20.8,96.8a1.6,1.6,0,0,1-2.3-1.7l5.4-31.2a1.5,1.5,0,0,0-.4-1.4L.5,40.4a1.6,1.6,0,0,1,.9-2.7l31.7-4.5a1.8,1.8,0,0,0,1.3-.9L48.6,3.9A1.5,1.5,0,0,1,51.4,3.9Z"/><path class="e530c34d-a8e4-4af6-b8ae-72d3e209aec3" d="M50,10.4,37.3,34.6A4,4,0,0,1,34,36.9L6.5,39.4l29,1.3A4.2,4.2,0,0,0,39.7,38Z"/><path class="a2fdf72f-a823-4c6c-a6b1-474ae32d2534" d="M19.1,91.6l-.6,3.5a1.6,1.6,0,0,0,2.3,1.7L49.3,82.1a1.2,1.2,0,0,1,1.4,0L79.2,96.8a1.6,1.6,0,0,0,2.3-1.7L76.1,63.9a1.5,1.5,0,0,1,.4-1.4l23-22.1a1.6,1.6,0,0,0-.9-2.7L88,36.2C70.8,66.7,44.4,82.7,19.1,91.6Z"/></svg>