<svg aria-hidden="true" style="position: absolute; width: 0; height: 0; overflow: hidden;" version="1.1" xmlns="http://www.w3.org/2000/svg" xmlns:xlink="http://www.w3.org/1999/xlink">
<defs>
<symbol id="icon-add-to-cart" viewBox="0 0 36 32">
<title>add-to-cart</title>
<path d="M34.499 4h-26.419l-0.521-2.776c-0.133-0.709-0.752-1.224-1.474-1.224h-5.335c-0.414 0-0.75 0.336-0.75 0.75v0.5c0 0.414 0.336 0.75 0.75 0.75h4.92l4.37 23.309c-0.646 0.71-1.040 1.655-1.040 2.691 0 2.209 1.791 4 4 4s4-1.791 4-4c0-0.001 0-0.003 0-0.004 0-0.735-0.199-1.423-0.547-2.014l0.010 0.019h9.073c-0.337 0.572-0.536 1.261-0.536 1.996 0 0.002 0 0.003 0 0.005v-0c0 2.209 1.791 4 4 4s4-1.791 4-4c0-1.125-0.465-2.14-1.212-2.867-0.162-0.64-0.741-1.133-1.455-1.133h-18.503l-0.75-4h20.711c0.711 0 1.324-0.498 1.468-1.194l2.708-13c0.194-0.931-0.517-1.806-1.469-1.806zM29 26c1.103 0 2 0.897 2 2s-0.897 2-2 2-2-0.897-2-2 0.897-2 2-2zM13 26c1.103 0 2 0.897 2 2s-0.897 2-2 2-2-0.897-2-2 0.897-2 2-2zM31.385 18h-20.68l-2.25-12h25.43l-2.5 12zM17 12.25v-0.5c0-0.414 0.336-0.75 0.75-0.75h2.25v-2.25c0-0.414 0.336-0.75 0.75-0.75h0.5c0.414 0 0.75 0.336 0.75 0.75v2.25h2.25c0.414 0 0.75 0.336 0.75 0.75v0.5c0 0.414-0.336 0.75-0.75 0.75h-2.25v2.25c0 0.414-0.336 0.75-0.75 0.75h-0.5c-0.414 0-0.75-0.336-0.75-0.75v-2.25h-2.25c-0.414 0-0.75-0.336-0.75-0.75z"></path>
</symbol>
<symbol id="icon-cart" viewBox="0 0 36 32">
<title>cart</title>
<path d="M34.499 4h-26.419l-0.521-2.776c-0.133-0.709-0.752-1.224-1.474-1.224h-5.335c-0.414 0-0.75 0.336-0.75 0.75v0.5c0 0.414 0.336 0.75 0.75 0.75h4.92l4.37 23.309c-0.646 0.71-1.040 1.655-1.040 2.691 0 2.209 1.791 4 4 4s4-1.791 4-4c0-0.001 0-0.003 0-0.004 0-0.735-0.199-1.423-0.547-2.014l0.010 0.019h9.073c-0.337 0.572-0.536 1.261-0.536 1.996 0 0.002 0 0.003 0 0.005v-0c0 2.209 1.791 4 4 4s4-1.791 4-4c0-1.125-0.465-2.14-1.212-2.867-0.162-0.64-0.741-1.133-1.455-1.133h-18.503l-0.75-4h20.711c0.711 0 1.324-0.498 1.468-1.194l2.708-13c0.194-0.931-0.517-1.806-1.469-1.806zM15 28c0 1.103-0.897 2-2 2s-2-0.897-2-2 0.897-2 2-2 2 0.897 2 2zM29 30c-1.103 0-2-0.897-2-2s0.897-2 2-2 2 0.897 2 2-0.897 2-2 2zM31.385 18h-20.68l-2.25-12h25.43l-2.5 12z"></path>
</symbol>
<symbol id="icon-check-badge" viewBox="0 0 32 32">
<title>check-badge</title>
<path fill="#339af0" style="fill: var(--color1, #339af0)" d="M29.408 8.256l-3.904-1.728-1.76-3.936-4.256 0.448-3.488-2.528-3.488 2.528-4.256-0.448-1.728 3.904-3.936 1.76 0.448 4.256-2.528 3.488 2.528 3.488-0.448 4.256 3.904 1.728 1.76 3.936 4.256-0.448 3.488 2.528 3.488-2.528 4.256 0.448 1.728-3.936 3.936-1.728-0.448-4.256 2.528-3.488-2.528-3.488zM12.896 22.208l-4.384-4.384 1.472-1.472 2.912 2.912 8.768-8.736 1.472 1.44z"></path>
<path fill="#1b86ce" style="fill: var(--color2, #1b86ce)" d="M31.904 15.712l-2.4-3.328 0.416-4.064c0.002-0.019 0.004-0.040 0.004-0.062 0-0.208-0.117-0.389-0.289-0.48l-0.003-0.001-3.744-1.664-1.664-3.744c-0.093-0.175-0.274-0.292-0.482-0.292-0.022 0-0.043 0.001-0.065 0.004l0.003-0-4.064 0.416-3.328-2.4c-0.079-0.060-0.179-0.096-0.288-0.096s-0.209 0.036-0.289 0.097l0.001-0.001-3.328 2.4-4.064-0.416c-0.019-0.002-0.040-0.004-0.062-0.004-0.208 0-0.389 0.117-0.48 0.289l-0.001 0.003-1.664 3.744-3.744 1.664c-0.175 0.093-0.292 0.274-0.292 0.482 0 0.022 0.001 0.043 0.004 0.065l-0-0.003 0.416 4.064-2.4 3.328c-0.060 0.079-0.096 0.179-0.096 0.288s0.036 0.209 0.097 0.289l-0.001-0.001 2.4 3.328-0.416 4.064c-0.002 0.019-0.004 0.040-0.004 0.062 0 0.208 0.117 0.389 0.289 0.48l0.003 0.001 3.744 1.664 1.664 3.744c0.093 0.175 0.274 0.292 0.482 0.292 0.022 0 0.043-0.001 0.065-0.004l-0.003 0 4.064-0.416 3.328 2.4c0.079 0.060 0.179 0.096 0.288 0.096s0.209-0.036 0.289-0.097l-0.001 0.001 3.328-2.4 4.064 0.416c0.019 0.002 0.040 0.004 0.062 0.004 0.208 0 0.389-0.117 0.48-0.289l0.001-0.003 1.664-3.744 3.744-1.664c0.175-0.093 0.292-0.274 0.292-0.482 0-0.022-0.001-0.043-0.004-0.065l0 0.003-0.416-4.064 2.4-3.328c0.060-0.079 0.096-0.179 0.096-0.288s-0.036-0.209-0.097-0.289l0.001 0.001zM28.544 19.168c-0.060 0.096-0.096 0.212-0.096 0.337 0 0.005 0 0.010 0 0.015v-0.001l0.416 3.904-3.584 1.6c-0.126 0.032-0.224 0.13-0.255 0.254l-0.001 0.002-1.6 3.584-3.904-0.416c-0.004-0-0.009-0-0.015-0-0.125 0-0.242 0.036-0.34 0.098l0.003-0.002-3.168 2.304-3.168-2.304c-0.086-0.060-0.193-0.096-0.309-0.096-0.004 0-0.008 0-0.012 0h-0.031l-3.904 0.416-1.6-3.584c-0.032-0.126-0.13-0.224-0.254-0.255l-0.002-0.001-3.584-1.6 0.416-3.904c0-0.004 0-0.009 0-0.015 0-0.125-0.036-0.242-0.098-0.34l0.002 0.003-2.304-3.168 2.304-3.168c0.060-0.096 0.096-0.212 0.096-0.337 0-0.005-0-0.010-0-0.015v0.001l-0.416-3.904 3.584-1.6c0.126-0.032 0.224-0.13 0.255-0.254l0.001-0.002 1.6-3.584 3.904 0.416c0.004 0 0.009 0 0.015 0 0.125 0 0.242-0.036 0.34-0.098l-0.003 0.002 3.168-2.304 3.168 2.304c0.096 0.060 0.212 0.096 0.337 0.096 0.005 0 0.010-0 0.015-0h-0.001l3.904-0.416 1.6 3.584c0.032 0.126 0.13 0.224 0.254 0.255l0.002 0.001 3.584 1.6-0.416 3.904c-0 0.004-0 0.009-0 0.015 0 0.125 0.036 0.242 0.098 0.34l-0.002-0.003 2.304 3.168z"></path>
</symbol>
<symbol id="icon-secure-badge" viewBox="0 0 32 32">
<title>secure-badge</title>
<path fill="#609b1c" style="fill: var(--color3, #609b1c)" d="M30.208 6.912l-14.208-6.912-14.208 6.912c-2.112 21.376 14.208 25.088 14.208 25.088s16.32-3.712 14.208-25.088z"></path>
<path fill="#444" style="fill: var(--color4, #444)" d="M27.008 8.96l-11.008-5.344-11.008 5.344c-1.632 16.544 11.008 19.424 11.008 19.424s12.64-2.88 11.008-19.424z"></path>
<path fill="#e6e6e6" style="fill: var(--color5, #e6e6e6)" d="M25.6 9.856l-9.6-4.672-9.6 4.672c-1.408 14.432 9.6 16.96 9.6 16.96s11.008-2.528 9.6-16.96z"></path>
<path fill="#fafafa" style="fill: var(--color6, #fafafa)" d="M16 26.816s-11.008-2.528-9.6-16.96l9.6-4.672z"></path>
<path fill="#444" style="fill: var(--color4, #444)" d="M18.752 14.688h-0.384c0-1.632-0.992-2.56-2.368-2.56s-2.4 0.928-2.4 2.56h-0.352c-0.576 0-0.736 0.192-0.736 0.736v3.392c0 0.544 0.16 1.056 0.736 1.056h5.504c0.506-0.049 0.898-0.473 0.898-0.988 0-0.024-0.001-0.048-0.003-0.072l0 0.003v-3.392c0-0.544-0.352-0.736-0.896-0.736zM16.608 18.848h-1.248l0.256-1.728c-0.25-0.139-0.416-0.401-0.416-0.702 0-0.001 0-0.002 0-0.002v0c0-0.442 0.358-0.8 0.8-0.8v0c0 0 0 0 0.001 0 0.431 0 0.782 0.34 0.799 0.766l0 0.002c0 0.009 0 0.019 0 0.029 0 0.312-0.165 0.585-0.413 0.737l-0.004 0.002zM14.368 14.688c0-1.504 0.8-1.824 1.632-1.824s1.6 0.32 1.6 1.824z"></path>
</symbol>
<symbol id="icon-star-badge" viewBox="0 0 32 32">
<title>star-badge</title>
<path fill="#ffcc01" style="fill: var(--color7, #ffcc01)" d="M16.448 1.248l4.544 9.088c0.086 0.152 0.236 0.26 0.413 0.288l0.003 0 10.144 1.44c0.247 0.039 0.434 0.251 0.434 0.506 0 0.139-0.056 0.266-0.146 0.358l0-0-7.36 7.072c-0.087 0.087-0.14 0.207-0.14 0.339 0 0.039 0.005 0.076 0.013 0.112l-0.001-0.003 1.728 9.984c0.005 0.026 0.008 0.056 0.008 0.087 0 0.283-0.229 0.512-0.512 0.512-0.084 0-0.164-0.020-0.234-0.057l0.003 0.001-9.12-4.704c-0.062-0.045-0.14-0.072-0.224-0.072s-0.162 0.027-0.225 0.073l0.001-0.001-9.12 4.704c-0.067 0.035-0.147 0.055-0.231 0.055-0.283 0-0.512-0.229-0.512-0.512 0-0.031 0.003-0.061 0.008-0.090l-0 0.003 1.728-9.984c0.008-0.033 0.012-0.070 0.012-0.109 0-0.133-0.054-0.252-0.14-0.339v0l-7.36-7.072c-0.090-0.092-0.146-0.219-0.146-0.358 0-0.255 0.187-0.467 0.431-0.506l0.003-0 10.144-1.44c0.18-0.028 0.33-0.136 0.415-0.285l0.002-0.003 4.544-9.088c0.071-0.181 0.245-0.308 0.448-0.308s0.377 0.126 0.447 0.304l0.001 0.003z"></path>
<path fill="#ffdb53" style="fill: var(--color8, #ffdb53)" d="M16 3.328l-4.064 7.744c-0.194 0.41-0.587 0.696-1.051 0.736l-0.005 0-8.8 0.8 9.28 0.416c0.026 0.002 0.057 0.003 0.088 0.003 0.571 0 1.058-0.356 1.253-0.858l0.003-0.009z"></path>
<path fill="#fcbd11" style="fill: var(--color9, #fcbd11)" d="M6.112 29.312l-0.192 1.12c-0.005 0.026-0.008 0.056-0.008 0.087 0 0.283 0.229 0.512 0.512 0.512 0.084 0 0.164-0.020 0.234-0.057l-0.003 0.001 9.12-4.704c0.062-0.045 0.14-0.072 0.224-0.072s0.162 0.027 0.225 0.073l-0.001-0.001 9.12 4.704c0.067 0.035 0.147 0.055 0.232 0.055 0.283 0 0.512-0.229 0.512-0.512 0-0.031-0.003-0.061-0.008-0.090l0 0.003-1.728-9.984c-0.008-0.033-0.012-0.070-0.012-0.109 0-0.133 0.054-0.252 0.14-0.339v0l7.36-7.072c0.090-0.092 0.146-0.219 0.146-0.358 0-0.255-0.187-0.467-0.431-0.506l-0.003-0-3.392-0.48c-5.504 9.76-13.952 14.88-22.048 17.728z"></path>
</symbol>
</defs>
</svg>
