<svg id="Layer_1" data-name="Layer 1" xmlns="http://www.w3.org/2000/svg" viewBox="0 0 300 300"><defs><style>.cls-1{fill:#8b103d;}.cls-2{fill:#fe912a;}.cls-3{fill:#e34856;}.cls-4{fill:#34b2e4;}.cls-5{fill:#7b002c;}.cls-6{fill:#fa7903;}.cls-7{fill:#c8202f;}.cls-8{fill:#0b98d0;}.cls-9{fill:#a6a8ab;}.cls-10{fill:#f0f1f1;}.cls-11{fill:#d0d2d3;}.cls-12{fill:#fff;}.cls-13{fill:#6c6e70;}.cls-14{fill:#929597;}.cls-15{fill:#2b2b38;}</style></defs><title>turnaround-02</title><path class="cls-1" d="M149.96115,12.07134H149.96A137.945,137.945,0,0,0,11.99935,149.99955v.00075h137.9618Z"/><path class="cls-2" d="M287.92567,150.0003v-.00075A137.94848,137.94848,0,0,0,149.96115,12.07134v137.929Z"/><path class="cls-3" d="M149.96,287.92868h.00111V150.0003H11.99935A137.94423,137.94423,0,0,0,149.96,287.92868Z"/><path class="cls-4" d="M149.96115,287.92868A137.94666,137.94666,0,0,0,287.92567,150.0003H149.96115Z"/><path class="cls-5" d="M149.96115,24.00345H149.96A126.011,126.011,0,0,0,23.93451,149.99955v.00075H149.96115Z"/><path class="cls-6" d="M275.99061,150.0003v-.00075A126.01392,126.01392,0,0,0,149.96115,24.00345V150.0003Z"/><path class="cls-7" d="M149.96,275.99638h.00111V150.0003H23.93451A126.01,126.01,0,0,0,149.96,275.99638Z"/><path class="cls-8" d="M149.96115,275.99638A126.01247,126.01247,0,0,0,275.99061,150.0003H149.96115Z"/><path class="cls-9" d="M262.39141,149.99955A112.42885,112.42885,0,1,1,149.96115,37.6,112.41473,112.41473,0,0,1,262.39141,149.99955Z"/><path class="cls-10" d="M243.62141,149.99955a93.65744,93.65744,0,1,1-93.66026-93.63772A93.6473,93.6473,0,0,1,243.62141,149.99955Z"/><path class="cls-11" d="M149.96115,243.63894a93.63856,93.63856,0,1,1,0-187.27711h.00207V37.6h-.00207a112.4,112.4,0,1,0,0,224.8h.00207V243.63894Z"/><path class="cls-12" d="M56.30653,149.88544a93.64383,93.64383,0,0,0,93.65462,93.63921h.00207V56.24764h-.00207A93.648,93.648,0,0,0,56.30653,149.88544Z"/><path class="cls-13" d="M69.5995,145.79144H84.01417a3.63506,3.63506,0,0,1,3.63506,3.63506v1.14889A3.63458,3.63458,0,0,1,84.01465,154.21H69.60357a3.63788,3.63788,0,0,1-3.63788-3.63788v-1.14684A3.63381,3.63381,0,0,1,69.5995,145.79144Z"/><path class="cls-13" d="M215.911,154.21a3.63412,3.63412,0,0,1-3.63224-3.63506v-1.14558a3.63515,3.63515,0,0,1,3.63224-3.63789H230.3271a3.63609,3.63609,0,0,1,3.63449,3.63789v1.14558A3.63506,3.63506,0,0,1,230.3271,154.21Z"/><path class="cls-13" d="M149.38846,66.02356h1.14981a3.632,3.632,0,0,1,3.632,3.632v14.414a3.63284,3.63284,0,0,1-3.63284,3.63284h-1.149a3.6326,3.6326,0,0,1-3.6326-3.6326V69.65616A3.6326,3.6326,0,0,1,149.38846,66.02356Z"/><path class="cls-14" d="M115.46588,86.50978c.6528,1.13051.55255,2.41024-.22349,2.85848l-.444.25622c-.7767.44825-1.93466-.10557-2.58794-1.23618L107.518,80.26315c-.65394-1.13265-.55405-2.41164.2231-2.85988l.44367-.25622c.77632-.44824,1.93464.10418,2.5886,1.23693Z"/><path class="cls-14" d="M88.33457,112.26041c1.1305.65237,1.68409,1.8107,1.23571,2.58653l-.25589.444c-.44872.77648-1.72869.87569-2.85956.22332L78.327,110.82367c-1.13294-.65443-1.68523-1.81211-1.23724-2.5887l.25636-.44328c.44828-.7765,1.72758-.87711,2.86061-.22333Z"/><path class="cls-14" d="M86.457,184.48927c1.13014-.65237,2.41018-.55251,2.85844.22334l.25636.44327c.44828.77641-.10531,1.93408-1.23581,2.588l-8.12782,4.69194c-1.13368.65312-2.41233.55251-2.86059-.22407l-.25628-.44329c-.44835-.77641.1042-1.93481,1.23714-2.58851Z"/><path class="cls-14" d="M112.214,211.61367c.65253-1.12974,1.81049-1.68356,2.58726-1.23541l.44331.25555c.77668.44817.87591,1.728.22412,2.85923l-4.69245,8.12655c-.65468,1.13183-1.81264,1.68358-2.58934,1.23543l-.44338-.25555c-.77669-.44816-.87733-1.728-.22339-2.86074Z"/><path class="cls-14" d="M184.46064,213.49079c-.65253-1.12974-.5534-2.40939.22414-2.85773l.44208-.25685c.7766-.44836,1.93456.10565,2.5884,1.23541l4.69329,8.12711c.65329,1.13275.55246,2.41033-.22412,2.85867l-.44265.25687c-.7766.44834-1.93623-.10492-2.59009-1.23748Z"/><path class="cls-14" d="M211.592,187.74026c-1.13022-.65237-1.68417-1.81-1.23572-2.58662l.25486-.444c.44828-.7764,1.72917-.87571,2.85994-.22408l8.12839,4.69288c1.13228.65368,1.68417,1.8106,1.23572,2.5872l-.25487.444c-.44825.7766-1.729.87646-2.862.22259Z"/><path class="cls-14" d="M213.46954,115.5115c-1.13079.65162-2.41016.55307-2.85844-.22343l-.25768-.44318c-.44771-.7766.10569-1.93428,1.23573-2.58805l8.12912-4.69063c1.133-.65378,2.41093-.55392,2.85939.22268l.25749.44327c.44845.77651-.10551,1.93483-1.23854,2.5887Z"/><path class="cls-14" d="M187.71263,88.3869c-.65328,1.12909-1.80992,1.68366-2.58727,1.23541l-.4449-.25554c-.77658-.44815-.8759-1.7279-.22412-2.85848l4.694-8.12581c.65459-1.13265,1.81106-1.68507,2.58785-1.23693l.44469.25555c.77679.44826.87592,1.728.22208,2.86065Z"/><path class="cls-13" d="M149.39019,212.29884H150.536a3.63433,3.63433,0,0,1,3.63433,3.63433v14.40975a3.6326,3.6326,0,0,1-3.6326,3.6326h-1.15124a3.63059,3.63059,0,0,1-3.63059-3.63059V215.93317A3.63433,3.63433,0,0,1,149.39019,212.29884Z"/><path class="cls-15" d="M156.12641,153.11c1.69766,1.70232,6.8664,9.6239,5.16929,11.31836l-.97506.97629c-1.70272,1.69651-9.62215-3.46644-11.32471-5.168l-30.59234-30.58694c-1.70414-1.698-22.3774-25.12607-20.67757-26.82762l.97374-.97285c1.69628-1.6994,25.131,18.97163,26.82652,20.67179Z"/><path class="cls-15" d="M151.41961,160.238c-1.69477,1.70156-9.61991,6.864-11.31965,5.16744l-.97168-.9763c-1.70263-1.69445,3.466-9.61678,5.16481-11.31835l15.854-15.84334c1.69543-1.70233,25.12893-22.374,26.82941-20.67179l.973.9721c1.70048,1.69649-18.97632,25.12325-20.6768,26.82266Z"/><polygon class="cls-3" points="0 150 24.009 150 24.009 120.911 0 150"/><polygon class="cls-7" points="24.011 120.91 24.009 120.911 24.009 150 48.02 150 24.011 120.91"/><polygon class="cls-1" points="149.963 0 149.963 24.003 179.06 24.003 149.963 0"/><polygon class="cls-5" points="179.061 24.004 179.06 24.003 149.963 24.003 149.963 48.008 179.061 24.004"/><polygon class="cls-2" points="300 149.886 275.991 149.886 275.991 178.976 300 149.886"/><polygon class="cls-6" points="275.99 178.977 275.991 178.976 275.991 149.886 251.981 149.886 275.99 178.977"/><polygon class="cls-4" points="149.961 300 149.961 275.996 120.864 275.996 149.961 300"/><polygon class="cls-8" points="120.863 275.995 120.864 275.996 149.961 275.996 149.961 251.992 120.863 275.995"/></svg>