<svg id="Layer_3" data-name="Layer 3" xmlns="http://www.w3.org/2000/svg" xmlns:xlink="http://www.w3.org/1999/xlink" viewBox="0 0 300 300"><defs><style>.cls-1{fill:#33aeff;}.cls-2{opacity:0.2;}.cls-3{fill:url(#linear-gradient);}.cls-4{fill:url(#linear-gradient-2);}.cls-5{fill:#e84c3d;}</style><linearGradient id="linear-gradient" x1="152.00576" y1="170.71004" x2="152.0115" y2="170.70429" gradientUnits="userSpaceOnUse"><stop offset="0" stop-opacity="0"/><stop offset="1"/></linearGradient><linearGradient id="linear-gradient-2" x1="-168.29427" y1="118.35281" x2="-168.28852" y2="118.34705" gradientTransform="translate(-20.2442 247.7214) rotate(180)" xlink:href="#linear-gradient"/></defs><title>unlimited</title><path class="cls-1" d="M234.34717,82.5229c-33.66348,0-56.71868,21.21279-78.14489,42.57776h0a27.64754,27.64754,0,0,0,36.42949,1.64066c11.82952-9.56962,25.04145-16.86343,39.89105-16.86343,22.33994,0,38.75224,16.87016,38.75224,40.12219a40.1753,40.1753,0,0,1-40.11891,40.12039c-26.44584,0-45.13724-23.70808-62.91949-40.12039l.06585-.0678L150,131.38585l.01839-.097L150,131.30721C128.11479,109.42184,103.03857,82.5229,69.30154,82.5229,29.17934,82.5229,0,113.98117,0,150.00008c0,39.20977,27.35515,67.477,65.653,67.477,33.64214,0,56.68947-21.18751,78.10434-42.5377a27.65736,27.65736,0,0,0-36.43342-1.6464c-11.81818,9.55188-25.01547,16.82747-39.84673,16.82747-22.33994,0-38.75536-16.86852-38.75536-40.12039a40.17849,40.17849,0,0,1,40.122-40.12219c26.446,0,45.13724,23.70825,62.91949,40.12219-.03464.03546-.06977.07174-.10441.107L150,168.69279c21.88521,21.88373,46.9616,48.78431,80.69863,48.78431,40.122,0,69.30137-31.45975,69.30137-67.477C300,110.79015,273.09942,82.5229,234.34717,82.5229Z"/><g class="cls-2"><path class="cls-3" d="M150,168.69279q1.98991,1.98991,4.01726,4.02875Q151.98992,170.68706,150,168.69279Z"/></g><g class="cls-2"><path class="cls-4" d="M150.05582,131.38585q-1.99017-1.98992-4.01724-4.02876Q148.06565,129.39159,150.05582,131.38585Z"/></g><path class="cls-5" d="M231.26073,190.12047c-26.446,0-45.13741-23.70808-62.9195-40.12055l-18.23682-18.69271-.10425.107-.1044-.10688C128.01022,109.42348,102.934,82.5229,69.197,82.5229c-24.39823,0-44.73389,11.64449-56.9385,28.86185,11.93391-4.85154,34.418-8.91427,56.481-1.50522,26.446,0,45.1374,23.70808,62.91949,40.12055l18.23683,18.69271.1044-.107.10425.107c21.88537,21.88373,46.96176,48.78431,80.69865,48.78431,24.39821,0,44.734-11.64432,56.93848-28.86185C275.80763,193.46679,253.32356,197.52936,231.26073,190.12047Z"/></svg>